<svg width="21" height="21" viewBox="0 0 21 21" fill="none" xmlns="http://www.w3.org/2000/svg">
<path d="M16.6013 7.95451C16.5399 7.94426 16.4681 7.94426 16.4066 7.95451C14.9925 7.90327 13.8652 6.74529 13.8652 5.31063C13.8652 3.84522 15.0437 2.66675 16.5091 2.66675C17.9745 2.66675 19.153 3.85547 19.153 5.31063C19.1427 6.74529 18.0155 7.90327 16.6013 7.95451Z" fill="white"/>
<path d="M15.5464 14.185C16.9503 14.4207 18.4977 14.1748 19.5839 13.4472C21.0288 12.4839 21.0288 10.9058 19.5839 9.94253C18.4874 9.21495 16.9195 8.969 15.5156 9.21495" fill="white"/>
<path d="M6.73329 7.95451C6.79478 7.94426 6.86651 7.94426 6.928 7.95451C8.34217 7.90327 9.4694 6.74529 9.4694 5.31063C9.4694 3.84522 8.29093 2.66675 6.82552 2.66675C5.36012 2.66675 4.18164 3.85547 4.18164 5.31063C4.19189 6.74529 5.31913 7.90327 6.73329 7.95451Z" fill="white"/>
<path d="M7.7892 14.185C6.38528 14.4207 4.8379 14.1748 3.75165 13.4472C2.30674 12.4839 2.30674 10.9058 3.75165 9.94253C4.84815 9.21495 6.41603 8.969 7.81995 9.21495" fill="white"/>
<path d="M11.6834 14.3798C11.6219 14.3696 11.5502 14.3696 11.4887 14.3798C10.0745 14.3286 8.94727 13.1706 8.94727 11.7359C8.94727 10.2705 10.1257 9.09204 11.5911 9.09204C13.0565 9.09204 14.235 10.2808 14.235 11.7359C14.2248 13.1706 13.0975 14.3388 11.6834 14.3798Z" fill="white"/>
<path d="M8.70087 16.3782C7.25596 17.3414 7.25596 18.9196 8.70087 19.8828C10.3405 20.9793 13.0254 20.9793 14.665 19.8828C16.1099 18.9196 16.1099 17.3414 14.665 16.3782C13.0356 15.2919 10.3405 15.2919 8.70087 16.3782Z" fill="white"/>
</svg>
