<svg width="26" height="26" viewBox="0 0 26 26" fill="none" xmlns="http://www.w3.org/2000/svg">
<g filter="url(#filter0_d_902_3518)">
<path fill-rule="evenodd" clip-rule="evenodd" d="M4.948 6H21.051C21.573 6 22 6.427 22 6.949V7.051C22 7.573 21.573 8 21.051 8H4.948C4.426 8 4 7.573 4 7.051V6.949C4 6.427 4.426 6 4.948 6ZM21.051 11H4.948C4.426 11 4 11.427 4 11.949V12.051C4 12.573 4.426 13 4.948 13H21.051C21.573 13 22 12.573 22 12.051V11.949C22 11.427 21.573 11 21.051 11ZM21.051 16H4.948C4.426 16 4 16.427 4 16.949V17.051C4 17.573 4.426 18 4.948 18H21.051C21.573 18 22 17.573 22 17.051V16.949C22 16.427 21.573 16 21.051 16Z" fill="#2E3A59"/>
</g>
<defs>
<filter id="filter0_d_902_3518" x="-3" y="0" width="32" height="32" filterUnits="userSpaceOnUse" color-interpolation-filters="sRGB">
<feFlood flood-opacity="0" result="BackgroundImageFix"/>
<feColorMatrix in="SourceAlpha" type="matrix" values="0 0 0 0 0 0 0 0 0 0 0 0 0 0 0 0 0 0 127 0" result="hardAlpha"/>
<feOffset dy="4"/>
<feGaussianBlur stdDeviation="2"/>
<feComposite in2="hardAlpha" operator="out"/>
<feColorMatrix type="matrix" values="0 0 0 0 0 0 0 0 0 0 0 0 0 0 0 0 0 0 0.25 0"/>
<feBlend mode="normal" in2="BackgroundImageFix" result="effect1_dropShadow_902_3518"/>
<feBlend mode="normal" in="SourceGraphic" in2="effect1_dropShadow_902_3518" result="shape"/>
</filter>
</defs>
</svg>
