<svg width="20" height="20" viewBox="0 0 20 20" fill="none" xmlns="http://www.w3.org/2000/svg">
<g clip-path="url(#clip0_902_3834)">
<path d="M19.5307 6.875H17.192L16.542 5.25C15.8741 3.5793 14.2799 2.5 12.4803 2.5H7.51939C5.72017 2.5 4.12564 3.5793 3.45728 5.25L2.80728 6.875H0.468999C0.16392 6.875 -0.0599077 7.16172 0.0143111 7.45742L0.248686 8.39492C0.300639 8.60352 0.488139 8.75 0.703374 8.75H1.48736C0.962749 9.2082 0.624858 9.87422 0.624858 10.625V12.5C0.624858 13.1297 0.865483 13.698 1.24986 14.1379V16.25C1.24986 16.9402 1.80962 17.5 2.49986 17.5H3.74986C4.44009 17.5 4.99986 16.9402 4.99986 16.25V15H14.9999V16.25C14.9999 16.9402 15.5596 17.5 16.2499 17.5H17.4999C18.1901 17.5 18.7499 16.9402 18.7499 16.25V14.1379C19.1342 13.6984 19.3749 13.1301 19.3749 12.5V10.625C19.3749 9.87422 19.037 9.2082 18.5127 8.75H19.2967C19.512 8.75 19.6995 8.60352 19.7514 8.39492L19.9858 7.45742C20.0596 7.16172 19.8358 6.875 19.5307 6.875ZM5.77837 6.17852C6.06314 5.4668 6.75259 5 7.51939 5H12.4803C13.2471 5 13.9366 5.4668 14.2213 6.17852L14.9999 8.125H4.99986L5.77837 6.17852ZM3.74986 12.4922C2.99986 12.4922 2.49986 11.9937 2.49986 11.2461C2.49986 10.4984 2.99986 10 3.74986 10C4.49986 10 5.62486 11.1215 5.62486 11.8691C5.62486 12.6168 4.49986 12.4922 3.74986 12.4922ZM16.2499 12.4922C15.4999 12.4922 14.3749 12.6168 14.3749 11.8691C14.3749 11.1215 15.4999 10 16.2499 10C16.9999 10 17.4999 10.4984 17.4999 11.2461C17.4999 11.9937 16.9999 12.4922 16.2499 12.4922Z" fill="white"/>
</g>
<defs>
<clipPath id="clip0_902_3834">
<rect width="20" height="20" fill="white"/>
</clipPath>
</defs>
</svg>
