<svg xmlns="http://www.w3.org/2000/svg" xmlns:xlink="http://www.w3.org/1999/xlink" width="500" zoomAndPan="magnify" viewBox="0 0 375 374.999991" height="500" preserveAspectRatio="xMidYMid meet" version="1.0"><defs><g/><clipPath id="9a8dbf35bf"><path d="M 109.464844 87 L 250 87 L 250 175 L 109.464844 175 Z M 109.464844 87 " clip-rule="nonzero"/></clipPath><clipPath id="316ca1737d"><path d="M 117 131 L 247 131 L 247 220.824219 L 117 220.824219 Z M 117 131 " clip-rule="nonzero"/></clipPath><clipPath id="8deb14a1f6"><path d="M 138 137 L 208 137 L 208 220.824219 L 138 220.824219 Z M 138 137 " clip-rule="nonzero"/></clipPath></defs><g clip-path="url(#9a8dbf35bf)"><path fill="#f1b92e" d="M 127.421875 117.824219 C 149.914062 119.195312 174.417969 117.429688 197.203125 118.035156 C 207.105469 118.296875 215.265625 124.730469 212.957031 135.542969 C 210.617188 146.496094 201.226562 147.519531 189.058594 147.898438 C 198.59375 153.316406 222.882812 174.257812 223.296875 174.492188 C 259.453125 157.15625 254.515625 109.445312 228.335938 94.382812 C 213.457031 85.824219 191.085938 88.269531 172.015625 88.269531 C 151.285156 88.269531 130.152344 88.664062 109.472656 88.222656 C 109.996094 91.890625 124.40625 108.695312 127.421875 117.824219 Z M 127.421875 117.824219 " fill-opacity="1" fill-rule="evenodd"/></g><g clip-path="url(#316ca1737d)"><path fill="#ffffff" d="M 117.703125 220.605469 L 148.90625 220.875 C 152.875 201.296875 155.195312 193.480469 150.191406 172.496094 C 148.480469 165.332031 146.089844 158.917969 143.214844 152.410156 C 140.585938 146.457031 135.179688 138.453125 133.996094 133.882812 C 144.890625 137.582031 157.042969 144.957031 166.808594 151.070312 L 192.101562 170.285156 C 204.945312 182.785156 212.875 189.738281 222.039062 206.148438 C 224.058594 209.761719 227.515625 218.667969 229.101562 220.992188 L 246.285156 221.054688 C 245.402344 213.808594 232.472656 194.847656 228.207031 189.347656 C 206.601562 161.484375 171.707031 134.871094 132.691406 131.863281 C 132.53125 143.386719 144.585938 169.492188 129.246094 202.753906 C 124.515625 213.007812 119.917969 215.726562 117.703125 220.605469 Z M 117.703125 220.605469 " fill-opacity="1" fill-rule="evenodd"/></g><g clip-path="url(#8deb14a1f6)"><path fill="#ffffff" d="M 172.152344 221.070312 L 207.925781 221.128906 C 206.636719 208.773438 185.675781 181.304688 179.699219 173.957031 C 163.640625 154.207031 144.589844 143.316406 138.800781 137.097656 C 153.640625 163.316406 169.003906 156.5625 172.152344 221.070312 Z M 172.152344 221.070312 " fill-opacity="1" fill-rule="evenodd"/></g><g fill="#000000" fill-opacity="1"><g transform="translate(89.662492, 265.734239)"><g><path d="M 16.40625 0 L 11.609375 -8.421875 L 8.1875 -8.421875 L 8.1875 0 L 2.828125 0 L 2.828125 -24.6875 L 12.796875 -24.6875 C 14.441406 -24.6875 15.910156 -24.332031 17.203125 -23.625 C 18.503906 -22.914062 19.53125 -21.953125 20.28125 -20.734375 C 21.03125 -19.515625 21.40625 -18.101562 21.40625 -16.5 C 21.40625 -14.90625 21 -13.476562 20.1875 -12.21875 C 19.375 -10.957031 18.285156 -10 16.921875 -9.34375 L 22.390625 0 Z M 8.1875 -19.75 L 8.1875 -13.359375 L 12.453125 -13.359375 C 13.554688 -13.359375 14.425781 -13.660156 15.0625 -14.265625 C 15.695312 -14.867188 16.015625 -15.628906 16.015625 -16.546875 C 16.015625 -17.484375 15.695312 -18.25 15.0625 -18.84375 C 14.425781 -19.445312 13.554688 -19.75 12.453125 -19.75 Z M 8.1875 -19.75 "/></g></g></g><g fill="#000000" fill-opacity="1"><g transform="translate(112.970512, 265.734239)"><g><path d="M 12.765625 0.53125 C 10.816406 0.53125 9.078125 0.113281 7.546875 -0.71875 C 6.015625 -1.550781 4.800781 -2.703125 3.90625 -4.171875 C 3.019531 -5.648438 2.578125 -7.351562 2.578125 -9.28125 L 2.578125 -24.6875 L 7.9375 -24.6875 L 7.9375 -9.515625 C 7.9375 -7.992188 8.390625 -6.78125 9.296875 -5.875 C 10.203125 -4.96875 11.359375 -4.515625 12.765625 -4.515625 C 14.203125 -4.515625 15.375 -4.96875 16.28125 -5.875 C 17.1875 -6.78125 17.640625 -7.992188 17.640625 -9.515625 L 17.640625 -24.6875 L 22.953125 -24.6875 L 22.953125 -9.28125 C 22.953125 -7.351562 22.507812 -5.648438 21.625 -4.171875 C 20.75 -2.703125 19.539062 -1.550781 18 -0.71875 C 16.457031 0.113281 14.710938 0.53125 12.765625 0.53125 Z M 12.765625 0.53125 "/></g></g></g><g fill="#000000" fill-opacity="1"><g transform="translate(138.500013, 265.734239)"><g><path d="M 17.5625 -19.71875 L 8.1875 -19.71875 L 8.1875 -14.28125 L 16.640625 -14.28125 L 16.640625 -9.453125 L 8.1875 -9.453125 L 8.1875 0 L 2.828125 0 L 2.828125 -24.6875 L 17.5625 -24.6875 Z M 17.5625 -19.71875 "/></g></g></g><g fill="#000000" fill-opacity="1"><g transform="translate(157.365048, 265.734239)"><g/></g></g><g fill="#000000" fill-opacity="1"><g transform="translate(165.792602, 265.734239)"><g><path d="M 19.859375 -24.6875 L 19.859375 -19.71875 L 12.984375 -19.71875 L 12.984375 0 L 7.625 0 L 7.625 -19.71875 L 0.78125 -19.71875 L 0.78125 -24.6875 Z M 19.859375 -24.6875 "/></g></g></g><g fill="#000000" fill-opacity="1"><g transform="translate(186.385466, 265.734239)"><g><path d="M 16.40625 0 L 11.609375 -8.421875 L 8.1875 -8.421875 L 8.1875 0 L 2.828125 0 L 2.828125 -24.6875 L 12.796875 -24.6875 C 14.441406 -24.6875 15.910156 -24.332031 17.203125 -23.625 C 18.503906 -22.914062 19.53125 -21.953125 20.28125 -20.734375 C 21.03125 -19.515625 21.40625 -18.101562 21.40625 -16.5 C 21.40625 -14.90625 21 -13.476562 20.1875 -12.21875 C 19.375 -10.957031 18.285156 -10 16.921875 -9.34375 L 22.390625 0 Z M 8.1875 -19.75 L 8.1875 -13.359375 L 12.453125 -13.359375 C 13.554688 -13.359375 14.425781 -13.660156 15.0625 -14.265625 C 15.695312 -14.867188 16.015625 -15.628906 16.015625 -16.546875 C 16.015625 -17.484375 15.695312 -18.25 15.0625 -18.84375 C 14.425781 -19.445312 13.554688 -19.75 12.453125 -19.75 Z M 8.1875 -19.75 "/></g></g></g><g fill="#000000" fill-opacity="1"><g transform="translate(209.693486, 265.734239)"><g><path d="M 19.21875 0 L 17.484375 -4.6875 L 7.65625 -4.6875 L 5.953125 0 L 0.3125 0 L 9.984375 -24.6875 L 15.015625 -24.6875 L 25 0 Z M 12.546875 -18.15625 L 9.34375 -9.34375 L 15.796875 -9.34375 Z M 12.546875 -18.15625 "/></g></g></g><g fill="#000000" fill-opacity="1"><g transform="translate(235.01142, 265.734239)"><g><path d="M 14.140625 0.53125 C 12.328125 0.53125 10.644531 0.207031 9.09375 -0.4375 C 7.539062 -1.082031 6.1875 -1.988281 5.03125 -3.15625 C 3.882812 -4.320312 2.992188 -5.6875 2.359375 -7.25 C 1.722656 -8.8125 1.40625 -10.5 1.40625 -12.3125 C 1.40625 -14.144531 1.722656 -15.847656 2.359375 -17.421875 C 2.992188 -18.992188 3.882812 -20.363281 5.03125 -21.53125 C 6.1875 -22.695312 7.539062 -23.601562 9.09375 -24.25 C 10.644531 -24.894531 12.328125 -25.21875 14.140625 -25.21875 C 16.140625 -25.21875 17.972656 -24.804688 19.640625 -23.984375 C 21.304688 -23.160156 22.703125 -22.003906 23.828125 -20.515625 C 24.960938 -19.035156 25.71875 -17.320312 26.09375 -15.375 L 20.734375 -15.375 C 20.242188 -16.832031 19.410156 -17.988281 18.234375 -18.84375 C 17.054688 -19.707031 15.691406 -20.140625 14.140625 -20.140625 C 12.753906 -20.140625 11.507812 -19.789062 10.40625 -19.09375 C 9.300781 -18.40625 8.425781 -17.472656 7.78125 -16.296875 C 7.132812 -15.117188 6.8125 -13.789062 6.8125 -12.3125 C 6.8125 -10.832031 7.132812 -9.507812 7.78125 -8.34375 C 8.425781 -7.175781 9.300781 -6.25 10.40625 -5.5625 C 11.507812 -4.882812 12.753906 -4.546875 14.140625 -4.546875 C 15.765625 -4.546875 17.160156 -5.003906 18.328125 -5.921875 C 19.503906 -6.835938 20.316406 -8.082031 20.765625 -9.65625 L 26.171875 -9.65625 C 25.796875 -7.613281 25.046875 -5.828125 23.921875 -4.296875 C 22.804688 -2.773438 21.40625 -1.585938 19.71875 -0.734375 C 18.039062 0.109375 16.179688 0.53125 14.140625 0.53125 Z M 14.140625 0.53125 "/></g></g></g><g fill="#000000" fill-opacity="1"><g transform="translate(262.198231, 265.734239)"><g><path d="M 23.421875 0 L 16.890625 0 L 8.1875 -12.0625 L 8.1875 0 L 2.828125 0 L 2.828125 -24.6875 L 8.1875 -24.6875 L 8.1875 -13.296875 L 16.25 -24.6875 L 22.5 -24.6875 L 14.078125 -12.875 Z M 23.421875 0 "/></g></g></g><g fill="#000000" fill-opacity="1"><g transform="translate(104.688608, 284.709238)"><g><path d="M 4.703125 -9.28125 C 4.179688 -9.28125 3.753906 -9.171875 3.421875 -8.953125 C 3.085938 -8.742188 2.921875 -8.421875 2.921875 -7.984375 C 2.921875 -7.546875 3.085938 -7.210938 3.421875 -6.984375 C 3.753906 -6.753906 4.46875 -6.507812 5.5625 -6.25 C 6.664062 -5.988281 7.492188 -5.617188 8.046875 -5.140625 C 8.597656 -4.660156 8.875 -3.953125 8.875 -3.015625 C 8.875 -2.085938 8.519531 -1.332031 7.8125 -0.75 C 7.113281 -0.164062 6.195312 0.125 5.0625 0.125 C 3.382812 0.125 1.898438 -0.453125 0.609375 -1.609375 L 1.734375 -2.96875 C 2.816406 -2.03125 3.941406 -1.5625 5.109375 -1.5625 C 5.679688 -1.5625 6.140625 -1.6875 6.484375 -1.9375 C 6.828125 -2.1875 7 -2.515625 7 -2.921875 C 7 -3.335938 6.835938 -3.660156 6.515625 -3.890625 C 6.191406 -4.117188 5.640625 -4.328125 4.859375 -4.515625 C 4.078125 -4.703125 3.476562 -4.875 3.0625 -5.03125 C 2.65625 -5.1875 2.296875 -5.394531 1.984375 -5.65625 C 1.359375 -6.132812 1.046875 -6.867188 1.046875 -7.859375 C 1.046875 -8.847656 1.398438 -9.609375 2.109375 -10.140625 C 2.828125 -10.671875 3.71875 -10.9375 4.78125 -10.9375 C 5.46875 -10.9375 6.144531 -10.820312 6.8125 -10.59375 C 7.488281 -10.375 8.070312 -10.0625 8.5625 -9.65625 L 7.59375 -8.296875 C 7.28125 -8.578125 6.851562 -8.8125 6.3125 -9 C 5.769531 -9.1875 5.234375 -9.28125 4.703125 -9.28125 Z M 4.703125 -9.28125 "/></g></g></g><g fill="#000000" fill-opacity="1"><g transform="translate(116.844975, 284.709238)"><g><path d="M 9.09375 -8.15625 C 8.363281 -8.914062 7.46875 -9.296875 6.40625 -9.296875 C 5.351562 -9.296875 4.460938 -8.914062 3.734375 -8.15625 C 3.003906 -7.40625 2.640625 -6.492188 2.640625 -5.421875 C 2.640625 -4.347656 3.003906 -3.429688 3.734375 -2.671875 C 4.460938 -1.921875 5.351562 -1.546875 6.40625 -1.546875 C 7.46875 -1.546875 8.363281 -1.921875 9.09375 -2.671875 C 9.820312 -3.429688 10.1875 -4.347656 10.1875 -5.421875 C 10.1875 -6.492188 9.820312 -7.40625 9.09375 -8.15625 Z M 10.421875 -1.46875 C 9.335938 -0.414062 8 0.109375 6.40625 0.109375 C 4.820312 0.109375 3.488281 -0.414062 2.40625 -1.46875 C 1.332031 -2.53125 0.796875 -3.847656 0.796875 -5.421875 C 0.796875 -6.992188 1.332031 -8.304688 2.40625 -9.359375 C 3.488281 -10.410156 4.820312 -10.9375 6.40625 -10.9375 C 8 -10.9375 9.335938 -10.410156 10.421875 -9.359375 C 11.503906 -8.304688 12.046875 -6.992188 12.046875 -5.421875 C 12.046875 -3.847656 11.503906 -2.53125 10.421875 -1.46875 Z M 10.421875 -1.46875 "/></g></g></g><g fill="#000000" fill-opacity="1"><g transform="translate(132.20793, 284.709238)"><g><path d="M 3.28125 -9 L 3.28125 -6.0625 L 8.015625 -6.0625 L 8.015625 -4.40625 L 3.28125 -4.40625 L 3.28125 0 L 1.484375 0 L 1.484375 -10.6875 L 8.609375 -10.6875 L 8.59375 -9 Z M 3.28125 -9 "/></g></g></g><g fill="#000000" fill-opacity="1"><g transform="translate(143.967292, 284.709238)"><g><path d="M 5.515625 -9.03125 L 5.515625 0 L 3.71875 0 L 3.71875 -9.03125 L 0.46875 -9.03125 L 0.46875 -10.6875 L 8.75 -10.6875 L 8.75 -9.03125 Z M 5.515625 -9.03125 "/></g></g></g><g fill="#000000" fill-opacity="1"><g transform="translate(155.72665, 284.709238)"><g><path d="M 4.8125 -3 L 7.203125 -10.6875 L 8.8125 -10.6875 L 11.203125 -3 L 13.890625 -10.6875 L 15.828125 -10.6875 L 12.109375 0 L 10.3125 0 L 8.0625 -7.3125 L 7.953125 -7.3125 L 5.703125 0 L 3.90625 0 L 0.1875 -10.6875 L 2.125 -10.6875 Z M 4.8125 -3 "/></g></g></g><g fill="#000000" fill-opacity="1"><g transform="translate(174.265649, 284.709238)"><g><path d="M 3 -2.4375 L 1.921875 0 L 0 0 L 4.703125 -10.6875 L 6.625 -10.6875 L 11.34375 0 L 9.40625 0 L 8.34375 -2.4375 Z M 7.609375 -4.09375 L 5.671875 -8.5 L 3.734375 -4.09375 Z M 7.609375 -4.09375 "/></g></g></g><g fill="#000000" fill-opacity="1"><g transform="translate(188.132196, 284.709238)"><g><path d="M 10.015625 -7.21875 C 10.015625 -5.445312 9.242188 -4.332031 7.703125 -3.875 L 10.5 0 L 8.203125 0 L 5.65625 -3.59375 L 3.28125 -3.59375 L 3.28125 0 L 1.484375 0 L 1.484375 -10.6875 L 5.453125 -10.6875 C 7.085938 -10.6875 8.253906 -10.410156 8.953125 -9.859375 C 9.660156 -9.304688 10.015625 -8.425781 10.015625 -7.21875 Z M 5.53125 -5.21875 C 6.550781 -5.21875 7.242188 -5.375 7.609375 -5.6875 C 7.972656 -6.007812 8.15625 -6.519531 8.15625 -7.21875 C 8.15625 -7.914062 7.96875 -8.394531 7.59375 -8.65625 C 7.21875 -8.914062 6.546875 -9.046875 5.578125 -9.046875 L 3.28125 -9.046875 L 3.28125 -5.21875 Z M 5.53125 -5.21875 "/></g></g></g><g fill="#000000" fill-opacity="1"><g transform="translate(201.784968, 284.709238)"><g><path d="M 8.984375 -10.6875 L 8.984375 -8.984375 L 3.28125 -8.984375 L 3.28125 -6.15625 L 8.40625 -6.15625 L 8.40625 -4.546875 L 3.28125 -4.546875 L 3.28125 -1.703125 L 9.171875 -1.703125 L 9.171875 0 L 1.484375 0 L 1.484375 -10.6875 Z M 8.984375 -10.6875 "/></g></g></g><g fill="#000000" fill-opacity="1"><g transform="translate(214.307813, 284.709238)"><g/></g></g><g fill="#000000" fill-opacity="1"><g transform="translate(221.028264, 284.709238)"><g><path d="M 5.515625 -9.03125 L 5.515625 0 L 3.71875 0 L 3.71875 -9.03125 L 0.46875 -9.03125 L 0.46875 -10.6875 L 8.75 -10.6875 L 8.75 -9.03125 Z M 5.515625 -9.03125 "/></g></g></g><g fill="#000000" fill-opacity="1"><g transform="translate(232.787628, 284.709238)"><g><path d="M 3 -2.4375 L 1.921875 0 L 0 0 L 4.703125 -10.6875 L 6.625 -10.6875 L 11.34375 0 L 9.40625 0 L 8.34375 -2.4375 Z M 7.609375 -4.09375 L 5.671875 -8.5 L 3.734375 -4.09375 Z M 7.609375 -4.09375 "/></g></g></g><g fill="#000000" fill-opacity="1"><g transform="translate(246.654182, 284.709238)"><g><path d="M 7.8125 0 L 5.1875 -4.015625 L 5.109375 -4.015625 L 2.46875 0 L 0.234375 0 L 3.890625 -5.484375 L 0.484375 -10.6875 L 2.71875 -10.6875 L 5.109375 -7.078125 L 5.1875 -7.078125 L 7.5625 -10.6875 L 9.796875 -10.6875 L 6.390625 -5.484375 L 10.0625 0 Z M 7.8125 0 "/></g></g></g><g fill="#000000" fill-opacity="1"><g transform="translate(259.467146, 284.709238)"><g><path d="M 1.484375 -10.6875 L 3.28125 -10.6875 L 3.28125 0 L 1.484375 0 Z M 1.484375 -10.6875 "/></g></g></g><g fill="#ffffff" fill-opacity="1"><g transform="translate(89.662492, 265.734239)"><g><path d="M 16.40625 0 L 11.609375 -8.421875 L 8.1875 -8.421875 L 8.1875 0 L 2.828125 0 L 2.828125 -24.6875 L 12.796875 -24.6875 C 14.441406 -24.6875 15.910156 -24.332031 17.203125 -23.625 C 18.503906 -22.914062 19.53125 -21.953125 20.28125 -20.734375 C 21.03125 -19.515625 21.40625 -18.101562 21.40625 -16.5 C 21.40625 -14.90625 21 -13.476562 20.1875 -12.21875 C 19.375 -10.957031 18.285156 -10 16.921875 -9.34375 L 22.390625 0 Z M 8.1875 -19.75 L 8.1875 -13.359375 L 12.453125 -13.359375 C 13.554688 -13.359375 14.425781 -13.660156 15.0625 -14.265625 C 15.695312 -14.867188 16.015625 -15.628906 16.015625 -16.546875 C 16.015625 -17.484375 15.695312 -18.25 15.0625 -18.84375 C 14.425781 -19.445312 13.554688 -19.75 12.453125 -19.75 Z M 8.1875 -19.75 "/></g></g></g><g fill="#ffffff" fill-opacity="1"><g transform="translate(112.970512, 265.734239)"><g><path d="M 12.765625 0.53125 C 10.816406 0.53125 9.078125 0.113281 7.546875 -0.71875 C 6.015625 -1.550781 4.800781 -2.703125 3.90625 -4.171875 C 3.019531 -5.648438 2.578125 -7.351562 2.578125 -9.28125 L 2.578125 -24.6875 L 7.9375 -24.6875 L 7.9375 -9.515625 C 7.9375 -7.992188 8.390625 -6.78125 9.296875 -5.875 C 10.203125 -4.96875 11.359375 -4.515625 12.765625 -4.515625 C 14.203125 -4.515625 15.375 -4.96875 16.28125 -5.875 C 17.1875 -6.78125 17.640625 -7.992188 17.640625 -9.515625 L 17.640625 -24.6875 L 22.953125 -24.6875 L 22.953125 -9.28125 C 22.953125 -7.351562 22.507812 -5.648438 21.625 -4.171875 C 20.75 -2.703125 19.539062 -1.550781 18 -0.71875 C 16.457031 0.113281 14.710938 0.53125 12.765625 0.53125 Z M 12.765625 0.53125 "/></g></g></g><g fill="#ffffff" fill-opacity="1"><g transform="translate(138.500013, 265.734239)"><g><path d="M 17.5625 -19.71875 L 8.1875 -19.71875 L 8.1875 -14.28125 L 16.640625 -14.28125 L 16.640625 -9.453125 L 8.1875 -9.453125 L 8.1875 0 L 2.828125 0 L 2.828125 -24.6875 L 17.5625 -24.6875 Z M 17.5625 -19.71875 "/></g></g></g><g fill="#ffffff" fill-opacity="1"><g transform="translate(157.365048, 265.734239)"><g/></g></g><g fill="#ffffff" fill-opacity="1"><g transform="translate(165.792602, 265.734239)"><g><path d="M 19.859375 -24.6875 L 19.859375 -19.71875 L 12.984375 -19.71875 L 12.984375 0 L 7.625 0 L 7.625 -19.71875 L 0.78125 -19.71875 L 0.78125 -24.6875 Z M 19.859375 -24.6875 "/></g></g></g><g fill="#ffffff" fill-opacity="1"><g transform="translate(186.385466, 265.734239)"><g><path d="M 16.40625 0 L 11.609375 -8.421875 L 8.1875 -8.421875 L 8.1875 0 L 2.828125 0 L 2.828125 -24.6875 L 12.796875 -24.6875 C 14.441406 -24.6875 15.910156 -24.332031 17.203125 -23.625 C 18.503906 -22.914062 19.53125 -21.953125 20.28125 -20.734375 C 21.03125 -19.515625 21.40625 -18.101562 21.40625 -16.5 C 21.40625 -14.90625 21 -13.476562 20.1875 -12.21875 C 19.375 -10.957031 18.285156 -10 16.921875 -9.34375 L 22.390625 0 Z M 8.1875 -19.75 L 8.1875 -13.359375 L 12.453125 -13.359375 C 13.554688 -13.359375 14.425781 -13.660156 15.0625 -14.265625 C 15.695312 -14.867188 16.015625 -15.628906 16.015625 -16.546875 C 16.015625 -17.484375 15.695312 -18.25 15.0625 -18.84375 C 14.425781 -19.445312 13.554688 -19.75 12.453125 -19.75 Z M 8.1875 -19.75 "/></g></g></g><g fill="#ffffff" fill-opacity="1"><g transform="translate(209.693486, 265.734239)"><g><path d="M 19.21875 0 L 17.484375 -4.6875 L 7.65625 -4.6875 L 5.953125 0 L 0.3125 0 L 9.984375 -24.6875 L 15.015625 -24.6875 L 25 0 Z M 12.546875 -18.15625 L 9.34375 -9.34375 L 15.796875 -9.34375 Z M 12.546875 -18.15625 "/></g></g></g><g fill="#ffffff" fill-opacity="1"><g transform="translate(235.01142, 265.734239)"><g><path d="M 14.140625 0.53125 C 12.328125 0.53125 10.644531 0.207031 9.09375 -0.4375 C 7.539062 -1.082031 6.1875 -1.988281 5.03125 -3.15625 C 3.882812 -4.320312 2.992188 -5.6875 2.359375 -7.25 C 1.722656 -8.8125 1.40625 -10.5 1.40625 -12.3125 C 1.40625 -14.144531 1.722656 -15.847656 2.359375 -17.421875 C 2.992188 -18.992188 3.882812 -20.363281 5.03125 -21.53125 C 6.1875 -22.695312 7.539062 -23.601562 9.09375 -24.25 C 10.644531 -24.894531 12.328125 -25.21875 14.140625 -25.21875 C 16.140625 -25.21875 17.972656 -24.804688 19.640625 -23.984375 C 21.304688 -23.160156 22.703125 -22.003906 23.828125 -20.515625 C 24.960938 -19.035156 25.71875 -17.320312 26.09375 -15.375 L 20.734375 -15.375 C 20.242188 -16.832031 19.410156 -17.988281 18.234375 -18.84375 C 17.054688 -19.707031 15.691406 -20.140625 14.140625 -20.140625 C 12.753906 -20.140625 11.507812 -19.789062 10.40625 -19.09375 C 9.300781 -18.40625 8.425781 -17.472656 7.78125 -16.296875 C 7.132812 -15.117188 6.8125 -13.789062 6.8125 -12.3125 C 6.8125 -10.832031 7.132812 -9.507812 7.78125 -8.34375 C 8.425781 -7.175781 9.300781 -6.25 10.40625 -5.5625 C 11.507812 -4.882812 12.753906 -4.546875 14.140625 -4.546875 C 15.765625 -4.546875 17.160156 -5.003906 18.328125 -5.921875 C 19.503906 -6.835938 20.316406 -8.082031 20.765625 -9.65625 L 26.171875 -9.65625 C 25.796875 -7.613281 25.046875 -5.828125 23.921875 -4.296875 C 22.804688 -2.773438 21.40625 -1.585938 19.71875 -0.734375 C 18.039062 0.109375 16.179688 0.53125 14.140625 0.53125 Z M 14.140625 0.53125 "/></g></g></g><g fill="#ffffff" fill-opacity="1"><g transform="translate(262.198231, 265.734239)"><g><path d="M 23.421875 0 L 16.890625 0 L 8.1875 -12.0625 L 8.1875 0 L 2.828125 0 L 2.828125 -24.6875 L 8.1875 -24.6875 L 8.1875 -13.296875 L 16.25 -24.6875 L 22.5 -24.6875 L 14.078125 -12.875 Z M 23.421875 0 "/></g></g></g><g fill="#000000" fill-opacity="1"><g transform="translate(104.688608, 284.709238)"><g><path d="M 4.703125 -9.28125 C 4.179688 -9.28125 3.753906 -9.171875 3.421875 -8.953125 C 3.085938 -8.742188 2.921875 -8.421875 2.921875 -7.984375 C 2.921875 -7.546875 3.085938 -7.210938 3.421875 -6.984375 C 3.753906 -6.753906 4.46875 -6.507812 5.5625 -6.25 C 6.664062 -5.988281 7.492188 -5.617188 8.046875 -5.140625 C 8.597656 -4.660156 8.875 -3.953125 8.875 -3.015625 C 8.875 -2.085938 8.519531 -1.332031 7.8125 -0.75 C 7.113281 -0.164062 6.195312 0.125 5.0625 0.125 C 3.382812 0.125 1.898438 -0.453125 0.609375 -1.609375 L 1.734375 -2.96875 C 2.816406 -2.03125 3.941406 -1.5625 5.109375 -1.5625 C 5.679688 -1.5625 6.140625 -1.6875 6.484375 -1.9375 C 6.828125 -2.1875 7 -2.515625 7 -2.921875 C 7 -3.335938 6.835938 -3.660156 6.515625 -3.890625 C 6.191406 -4.117188 5.640625 -4.328125 4.859375 -4.515625 C 4.078125 -4.703125 3.476562 -4.875 3.0625 -5.03125 C 2.65625 -5.1875 2.296875 -5.394531 1.984375 -5.65625 C 1.359375 -6.132812 1.046875 -6.867188 1.046875 -7.859375 C 1.046875 -8.847656 1.398438 -9.609375 2.109375 -10.140625 C 2.828125 -10.671875 3.71875 -10.9375 4.78125 -10.9375 C 5.46875 -10.9375 6.144531 -10.820312 6.8125 -10.59375 C 7.488281 -10.375 8.070312 -10.0625 8.5625 -9.65625 L 7.59375 -8.296875 C 7.28125 -8.578125 6.851562 -8.8125 6.3125 -9 C 5.769531 -9.1875 5.234375 -9.28125 4.703125 -9.28125 Z M 4.703125 -9.28125 "/></g></g></g><g fill="#000000" fill-opacity="1"><g transform="translate(116.844975, 284.709238)"><g><path d="M 9.09375 -8.15625 C 8.363281 -8.914062 7.46875 -9.296875 6.40625 -9.296875 C 5.351562 -9.296875 4.460938 -8.914062 3.734375 -8.15625 C 3.003906 -7.40625 2.640625 -6.492188 2.640625 -5.421875 C 2.640625 -4.347656 3.003906 -3.429688 3.734375 -2.671875 C 4.460938 -1.921875 5.351562 -1.546875 6.40625 -1.546875 C 7.46875 -1.546875 8.363281 -1.921875 9.09375 -2.671875 C 9.820312 -3.429688 10.1875 -4.347656 10.1875 -5.421875 C 10.1875 -6.492188 9.820312 -7.40625 9.09375 -8.15625 Z M 10.421875 -1.46875 C 9.335938 -0.414062 8 0.109375 6.40625 0.109375 C 4.820312 0.109375 3.488281 -0.414062 2.40625 -1.46875 C 1.332031 -2.53125 0.796875 -3.847656 0.796875 -5.421875 C 0.796875 -6.992188 1.332031 -8.304688 2.40625 -9.359375 C 3.488281 -10.410156 4.820312 -10.9375 6.40625 -10.9375 C 8 -10.9375 9.335938 -10.410156 10.421875 -9.359375 C 11.503906 -8.304688 12.046875 -6.992188 12.046875 -5.421875 C 12.046875 -3.847656 11.503906 -2.53125 10.421875 -1.46875 Z M 10.421875 -1.46875 "/></g></g></g><g fill="#000000" fill-opacity="1"><g transform="translate(132.20793, 284.709238)"><g><path d="M 3.28125 -9 L 3.28125 -6.0625 L 8.015625 -6.0625 L 8.015625 -4.40625 L 3.28125 -4.40625 L 3.28125 0 L 1.484375 0 L 1.484375 -10.6875 L 8.609375 -10.6875 L 8.59375 -9 Z M 3.28125 -9 "/></g></g></g><g fill="#000000" fill-opacity="1"><g transform="translate(143.967292, 284.709238)"><g><path d="M 5.515625 -9.03125 L 5.515625 0 L 3.71875 0 L 3.71875 -9.03125 L 0.46875 -9.03125 L 0.46875 -10.6875 L 8.75 -10.6875 L 8.75 -9.03125 Z M 5.515625 -9.03125 "/></g></g></g><g fill="#000000" fill-opacity="1"><g transform="translate(155.72665, 284.709238)"><g><path d="M 4.8125 -3 L 7.203125 -10.6875 L 8.8125 -10.6875 L 11.203125 -3 L 13.890625 -10.6875 L 15.828125 -10.6875 L 12.109375 0 L 10.3125 0 L 8.0625 -7.3125 L 7.953125 -7.3125 L 5.703125 0 L 3.90625 0 L 0.1875 -10.6875 L 2.125 -10.6875 Z M 4.8125 -3 "/></g></g></g><g fill="#000000" fill-opacity="1"><g transform="translate(174.265649, 284.709238)"><g><path d="M 3 -2.4375 L 1.921875 0 L 0 0 L 4.703125 -10.6875 L 6.625 -10.6875 L 11.34375 0 L 9.40625 0 L 8.34375 -2.4375 Z M 7.609375 -4.09375 L 5.671875 -8.5 L 3.734375 -4.09375 Z M 7.609375 -4.09375 "/></g></g></g><g fill="#000000" fill-opacity="1"><g transform="translate(188.132196, 284.709238)"><g><path d="M 10.015625 -7.21875 C 10.015625 -5.445312 9.242188 -4.332031 7.703125 -3.875 L 10.5 0 L 8.203125 0 L 5.65625 -3.59375 L 3.28125 -3.59375 L 3.28125 0 L 1.484375 0 L 1.484375 -10.6875 L 5.453125 -10.6875 C 7.085938 -10.6875 8.253906 -10.410156 8.953125 -9.859375 C 9.660156 -9.304688 10.015625 -8.425781 10.015625 -7.21875 Z M 5.53125 -5.21875 C 6.550781 -5.21875 7.242188 -5.375 7.609375 -5.6875 C 7.972656 -6.007812 8.15625 -6.519531 8.15625 -7.21875 C 8.15625 -7.914062 7.96875 -8.394531 7.59375 -8.65625 C 7.21875 -8.914062 6.546875 -9.046875 5.578125 -9.046875 L 3.28125 -9.046875 L 3.28125 -5.21875 Z M 5.53125 -5.21875 "/></g></g></g><g fill="#000000" fill-opacity="1"><g transform="translate(201.784968, 284.709238)"><g><path d="M 8.984375 -10.6875 L 8.984375 -8.984375 L 3.28125 -8.984375 L 3.28125 -6.15625 L 8.40625 -6.15625 L 8.40625 -4.546875 L 3.28125 -4.546875 L 3.28125 -1.703125 L 9.171875 -1.703125 L 9.171875 0 L 1.484375 0 L 1.484375 -10.6875 Z M 8.984375 -10.6875 "/></g></g></g><g fill="#000000" fill-opacity="1"><g transform="translate(214.307813, 284.709238)"><g/></g></g><g fill="#000000" fill-opacity="1"><g transform="translate(221.028264, 284.709238)"><g><path d="M 5.515625 -9.03125 L 5.515625 0 L 3.71875 0 L 3.71875 -9.03125 L 0.46875 -9.03125 L 0.46875 -10.6875 L 8.75 -10.6875 L 8.75 -9.03125 Z M 5.515625 -9.03125 "/></g></g></g><g fill="#000000" fill-opacity="1"><g transform="translate(232.787628, 284.709238)"><g><path d="M 3 -2.4375 L 1.921875 0 L 0 0 L 4.703125 -10.6875 L 6.625 -10.6875 L 11.34375 0 L 9.40625 0 L 8.34375 -2.4375 Z M 7.609375 -4.09375 L 5.671875 -8.5 L 3.734375 -4.09375 Z M 7.609375 -4.09375 "/></g></g></g><g fill="#000000" fill-opacity="1"><g transform="translate(246.654182, 284.709238)"><g><path d="M 7.8125 0 L 5.1875 -4.015625 L 5.109375 -4.015625 L 2.46875 0 L 0.234375 0 L 3.890625 -5.484375 L 0.484375 -10.6875 L 2.71875 -10.6875 L 5.109375 -7.078125 L 5.1875 -7.078125 L 7.5625 -10.6875 L 9.796875 -10.6875 L 6.390625 -5.484375 L 10.0625 0 Z M 7.8125 0 "/></g></g></g><g fill="#000000" fill-opacity="1"><g transform="translate(259.467146, 284.709238)"><g><path d="M 1.484375 -10.6875 L 3.28125 -10.6875 L 3.28125 0 L 1.484375 0 Z M 1.484375 -10.6875 "/></g></g></g></svg>