<svg xmlns="http://www.w3.org/2000/svg" xmlns:xlink="http://www.w3.org/1999/xlink" width="200" zoomAndPan="magnify" viewBox="0 0 150 60" height="80" preserveAspectRatio="xMidYMid meet" version="1.0"><defs><clipPath id="f20f708950"><path d="M 1.679688 7.601562 L 50 7.601562 L 50 38 L 1.679688 38 Z M 1.679688 7.601562 " clip-rule="nonzero"/></clipPath><clipPath id="c302916636"><path d="M 4.332031 23 L 48.921875 23 L 48.921875 53.894531 L 4.332031 53.894531 Z M 4.332031 23 " clip-rule="nonzero"/></clipPath><clipPath id="24a8dfcfb3"><path d="M 11.5 24.800781 L 35.785156 24.800781 L 35.785156 53.894531 L 11.5 53.894531 Z M 11.5 24.800781 " clip-rule="nonzero"/></clipPath></defs><path fill="#ffffff" d="M 62.570312 31.996094 L 60.320312 28.015625 L 58.707031 28.015625 L 58.707031 31.996094 L 56.1875 31.996094 L 56.1875 20.339844 L 60.878906 20.339844 C 61.652344 20.339844 62.34375 20.507812 62.949219 20.839844 C 63.5625 21.167969 64.042969 21.625 64.394531 22.203125 C 64.75 22.78125 64.929688 23.449219 64.929688 24.203125 C 64.929688 24.957031 64.738281 25.632812 64.355469 26.226562 C 63.972656 26.820312 63.460938 27.269531 62.820312 27.582031 L 65.390625 31.996094 Z M 58.707031 22.671875 L 58.707031 25.683594 L 60.71875 25.683594 C 61.234375 25.683594 61.644531 25.542969 61.945312 25.257812 C 62.242188 24.976562 62.390625 24.617188 62.390625 24.183594 C 62.390625 23.742188 62.242188 23.378906 61.945312 23.097656 C 61.644531 22.8125 61.234375 22.671875 60.71875 22.671875 Z M 58.707031 22.671875 " fill-opacity="1" fill-rule="nonzero"/><path fill="#ffffff" d="M 71.824219 32.246094 C 70.90625 32.246094 70.085938 32.050781 69.363281 31.660156 C 68.648438 31.261719 68.078125 30.71875 67.660156 30.027344 C 67.242188 29.332031 67.03125 28.527344 67.03125 27.613281 L 67.03125 20.339844 L 69.550781 20.339844 L 69.550781 27.496094 C 69.550781 28.222656 69.761719 28.800781 70.1875 29.226562 C 70.613281 29.652344 71.160156 29.863281 71.824219 29.863281 C 72.496094 29.863281 73.042969 29.652344 73.464844 29.226562 C 73.890625 28.800781 74.105469 28.222656 74.105469 27.496094 L 74.105469 20.339844 L 76.613281 20.339844 L 76.613281 27.613281 C 76.613281 28.527344 76.402344 29.332031 75.988281 30.027344 C 75.574219 30.71875 75.003906 31.261719 74.28125 31.660156 C 73.558594 32.050781 72.738281 32.246094 71.824219 32.246094 Z M 71.824219 32.246094 " fill-opacity="1" fill-rule="nonzero"/><path fill="#ffffff" d="M 86.074219 22.683594 L 81.664062 22.683594 L 81.664062 25.253906 L 85.644531 25.253906 L 85.644531 27.535156 L 81.664062 27.535156 L 81.664062 31.996094 L 79.144531 31.996094 L 79.144531 20.339844 L 86.074219 20.339844 Z M 86.074219 22.683594 " fill-opacity="1" fill-rule="nonzero"/><path fill="#ffffff" d="M 99.976562 20.339844 L 99.976562 22.683594 L 96.75 22.683594 L 96.75 31.996094 L 94.230469 31.996094 L 94.230469 22.683594 L 91.011719 22.683594 L 91.011719 20.339844 Z M 99.976562 20.339844 " fill-opacity="1" fill-rule="nonzero"/><path fill="#ffffff" d="M 108.03125 31.996094 L 105.78125 28.015625 L 104.167969 28.015625 L 104.167969 31.996094 L 101.652344 31.996094 L 101.652344 20.339844 L 106.339844 20.339844 C 107.117188 20.339844 107.804688 20.507812 108.414062 20.839844 C 109.023438 21.167969 109.503906 21.625 109.855469 22.203125 C 110.210938 22.78125 110.390625 23.449219 110.390625 24.203125 C 110.390625 24.957031 110.199219 25.632812 109.816406 26.226562 C 109.4375 26.820312 108.925781 27.269531 108.28125 27.582031 L 110.851562 31.996094 Z M 104.167969 22.671875 L 104.167969 25.683594 L 106.179688 25.683594 C 106.695312 25.683594 107.105469 25.542969 107.40625 25.257812 C 107.703125 24.976562 107.851562 24.617188 107.851562 24.183594 C 107.851562 23.742188 107.703125 23.378906 107.40625 23.097656 C 107.105469 22.8125 106.695312 22.671875 106.179688 22.671875 Z M 104.167969 22.671875 " fill-opacity="1" fill-rule="nonzero"/><path fill="#ffffff" d="M 120.3125 31.996094 L 119.503906 29.785156 L 114.875 29.785156 L 114.078125 31.996094 L 111.429688 31.996094 L 115.972656 20.339844 L 118.339844 20.339844 L 123.03125 31.996094 Z M 117.183594 23.421875 L 115.671875 27.582031 L 118.707031 27.582031 Z M 117.183594 23.421875 " fill-opacity="1" fill-rule="nonzero"/><path fill="#ffffff" d="M 129.832031 32.246094 C 128.976562 32.246094 128.183594 32.09375 127.453125 31.789062 C 126.726562 31.480469 126.09375 31.054688 125.550781 30.507812 C 125.011719 29.957031 124.59375 29.316406 124.292969 28.578125 C 123.996094 27.835938 123.847656 27.039062 123.847656 26.183594 C 123.847656 25.316406 123.996094 24.511719 124.292969 23.769531 C 124.59375 23.027344 125.011719 22.378906 125.550781 21.828125 C 126.09375 21.277344 126.726562 20.851562 127.453125 20.546875 C 128.183594 20.242188 128.976562 20.089844 129.832031 20.089844 C 130.765625 20.089844 131.628906 20.285156 132.410156 20.671875 C 133.199219 21.058594 133.855469 21.601562 134.382812 22.300781 C 134.914062 23.003906 135.269531 23.8125 135.449219 24.734375 L 132.929688 24.734375 C 132.695312 24.046875 132.304688 23.5 131.753906 23.097656 C 131.199219 22.6875 130.558594 22.484375 129.832031 22.484375 C 129.175781 22.484375 128.585938 22.648438 128.070312 22.976562 C 127.550781 23.308594 127.136719 23.75 126.832031 24.300781 C 126.527344 24.855469 126.378906 25.484375 126.378906 26.183594 C 126.378906 26.882812 126.527344 27.507812 126.832031 28.058594 C 127.136719 28.609375 127.550781 29.042969 128.070312 29.363281 C 128.585938 29.6875 129.175781 29.847656 129.832031 29.847656 C 130.59375 29.847656 131.25 29.628906 131.800781 29.195312 C 132.351562 28.761719 132.734375 28.175781 132.945312 27.433594 L 135.480469 27.433594 C 135.304688 28.402344 134.953125 29.246094 134.425781 29.964844 C 133.90625 30.6875 133.246094 31.246094 132.457031 31.644531 C 131.667969 32.046875 130.792969 32.246094 129.832031 32.246094 Z M 129.832031 32.246094 " fill-opacity="1" fill-rule="nonzero"/><path fill="#ffffff" d="M 146.96875 31.996094 L 143.902344 31.996094 L 139.804688 26.300781 L 139.804688 31.996094 L 137.285156 31.996094 L 137.285156 20.339844 L 139.804688 20.339844 L 139.804688 25.714844 L 143.605469 20.339844 L 146.535156 20.339844 L 142.570312 25.914062 Z M 146.96875 31.996094 " fill-opacity="1" fill-rule="nonzero"/><path fill="#ffffff" d="M 64.140625 36.582031 C 63.894531 36.582031 63.695312 36.632812 63.53125 36.730469 C 63.371094 36.832031 63.296875 36.984375 63.296875 37.1875 C 63.296875 37.390625 63.371094 37.546875 63.53125 37.65625 C 63.695312 37.765625 64.03125 37.882812 64.546875 38.007812 C 65.058594 38.132812 65.445312 38.304688 65.703125 38.53125 C 65.964844 38.757812 66.09375 39.089844 66.09375 39.53125 C 66.09375 39.972656 65.929688 40.332031 65.597656 40.605469 C 65.269531 40.878906 64.839844 41.011719 64.304688 41.011719 C 63.519531 41.011719 62.824219 40.742188 62.210938 40.199219 L 62.746094 39.554688 C 63.253906 40 63.777344 40.21875 64.320312 40.21875 C 64.59375 40.21875 64.8125 40.160156 64.976562 40.042969 C 65.136719 39.929688 65.21875 39.773438 65.21875 39.574219 C 65.21875 39.378906 65.140625 39.226562 64.988281 39.117188 C 64.839844 39.011719 64.578125 38.914062 64.210938 38.824219 C 63.839844 38.738281 63.558594 38.65625 63.371094 38.582031 C 63.179688 38.507812 63.007812 38.410156 62.859375 38.289062 C 62.5625 38.0625 62.410156 37.71875 62.410156 37.25 C 62.410156 36.785156 62.578125 36.425781 62.914062 36.175781 C 63.253906 35.921875 63.675781 35.792969 64.171875 35.792969 C 64.496094 35.792969 64.816406 35.847656 65.128906 35.957031 C 65.445312 36.0625 65.714844 36.210938 65.945312 36.398438 L 65.496094 37.039062 C 65.347656 36.90625 65.144531 36.796875 64.886719 36.710938 C 64.632812 36.625 64.386719 36.582031 64.140625 36.582031 Z M 64.140625 36.582031 " fill-opacity="1" fill-rule="nonzero"/><path fill="#ffffff" d="M 71.914062 37.105469 C 71.574219 36.75 71.15625 36.570312 70.65625 36.570312 C 70.160156 36.570312 69.738281 36.75 69.394531 37.105469 C 69.054688 37.460938 68.882812 37.890625 68.882812 38.398438 C 68.882812 38.910156 69.054688 39.339844 69.394531 39.695312 C 69.738281 40.046875 70.160156 40.226562 70.65625 40.226562 C 71.15625 40.226562 71.574219 40.046875 71.914062 39.695312 C 72.257812 39.339844 72.429688 38.910156 72.429688 38.398438 C 72.429688 37.890625 72.257812 37.460938 71.914062 37.105469 Z M 72.535156 40.261719 C 72.027344 40.757812 71.402344 41.007812 70.65625 41.007812 C 69.910156 41.007812 69.28125 40.757812 68.773438 40.261719 C 68.265625 39.761719 68.011719 39.140625 68.011719 38.398438 C 68.011719 37.660156 68.265625 37.039062 68.773438 36.542969 C 69.28125 36.042969 69.910156 35.792969 70.65625 35.792969 C 71.402344 35.792969 72.027344 36.042969 72.535156 36.542969 C 73.042969 37.039062 73.296875 37.660156 73.296875 38.398438 C 73.296875 39.140625 73.042969 39.761719 72.535156 40.261719 Z M 72.535156 40.261719 " fill-opacity="1" fill-rule="nonzero"/><path fill="#ffffff" d="M 76.402344 36.707031 L 76.402344 38.09375 L 78.632812 38.09375 L 78.632812 38.882812 L 76.402344 38.882812 L 76.402344 40.957031 L 75.558594 40.957031 L 75.558594 35.914062 L 78.90625 35.914062 L 78.898438 36.707031 Z M 76.402344 36.707031 " fill-opacity="1" fill-rule="nonzero"/><path fill="#ffffff" d="M 82.980469 36.695312 L 82.980469 40.957031 L 82.128906 40.957031 L 82.128906 36.695312 L 80.613281 36.695312 L 80.613281 35.914062 L 84.5 35.914062 L 84.5 36.695312 Z M 82.980469 36.695312 " fill-opacity="1" fill-rule="nonzero"/><path fill="#ffffff" d="M 88.179688 39.542969 L 89.300781 35.914062 L 90.058594 35.914062 L 91.179688 39.542969 L 92.441406 35.914062 L 93.355469 35.914062 L 91.601562 40.957031 L 90.761719 40.957031 L 89.703125 37.5 L 89.648438 37.5 L 88.589844 40.957031 L 87.75 40.957031 L 86.003906 35.914062 L 86.910156 35.914062 Z M 88.179688 39.542969 " fill-opacity="1" fill-rule="nonzero"/><path fill="#ffffff" d="M 96.035156 39.8125 L 95.53125 40.957031 L 94.628906 40.957031 L 96.835938 35.914062 L 97.746094 35.914062 L 99.953125 40.957031 L 99.050781 40.957031 L 98.546875 39.8125 Z M 98.207031 39.023438 L 97.292969 36.945312 L 96.382812 39.023438 Z M 98.207031 39.023438 " fill-opacity="1" fill-rule="nonzero"/><path fill="#ffffff" d="M 105.847656 37.550781 C 105.847656 38.382812 105.488281 38.910156 104.765625 39.125 L 106.078125 40.957031 L 105.003906 40.957031 L 103.800781 39.261719 L 102.6875 39.261719 L 102.6875 40.957031 L 101.84375 40.957031 L 101.84375 35.914062 L 103.710938 35.914062 C 104.476562 35.914062 105.023438 36.042969 105.351562 36.304688 C 105.683594 36.566406 105.847656 36.980469 105.847656 37.550781 Z M 103.746094 38.488281 C 104.222656 38.488281 104.546875 38.414062 104.71875 38.269531 C 104.890625 38.117188 104.976562 37.878906 104.976562 37.550781 C 104.976562 37.222656 104.886719 36.996094 104.710938 36.875 C 104.535156 36.75 104.222656 36.6875 103.765625 36.6875 L 102.6875 36.6875 L 102.6875 38.488281 Z M 103.746094 38.488281 " fill-opacity="1" fill-rule="nonzero"/><path fill="#ffffff" d="M 111.789062 35.914062 L 111.789062 36.710938 L 109.105469 36.710938 L 109.105469 38.050781 L 111.511719 38.050781 L 111.511719 38.804688 L 109.105469 38.804688 L 109.105469 40.15625 L 111.867188 40.15625 L 111.867188 40.957031 L 108.261719 40.957031 L 108.261719 35.914062 Z M 111.789062 35.914062 " fill-opacity="1" fill-rule="nonzero"/><path fill="#ffffff" d="M 119.203125 36.695312 L 119.203125 40.957031 L 118.351562 40.957031 L 118.351562 36.695312 L 116.832031 36.695312 L 116.832031 35.914062 L 120.71875 35.914062 L 120.71875 36.695312 Z M 119.203125 36.695312 " fill-opacity="1" fill-rule="nonzero"/><path fill="#ffffff" d="M 123.542969 39.8125 L 123.039062 40.957031 L 122.136719 40.957031 L 124.34375 35.914062 L 125.25 35.914062 L 127.460938 40.957031 L 126.558594 40.957031 L 126.054688 39.8125 Z M 125.710938 39.023438 L 124.796875 36.945312 L 123.890625 39.023438 Z M 125.710938 39.023438 " fill-opacity="1" fill-rule="nonzero"/><path fill="#ffffff" d="M 132.324219 40.957031 L 131.085938 39.054688 L 131.046875 39.054688 L 129.816406 40.957031 L 128.757812 40.957031 L 130.480469 38.367188 L 128.882812 35.914062 L 129.929688 35.914062 L 131.046875 37.617188 L 131.085938 37.617188 L 132.203125 35.914062 L 133.257812 35.914062 L 131.652344 38.367188 L 133.375 40.957031 Z M 132.324219 40.957031 " fill-opacity="1" fill-rule="nonzero"/><path fill="#ffffff" d="M 135.371094 35.914062 L 136.21875 35.914062 L 136.21875 40.957031 L 135.371094 40.957031 Z M 135.371094 35.914062 " fill-opacity="1" fill-rule="nonzero"/><g clip-path="url(#f20f708950)"><path fill="#f1b92e" d="M 7.867188 18.226562 C 15.617188 18.703125 24.066406 18.089844 31.917969 18.296875 C 35.332031 18.390625 38.144531 20.617188 37.347656 24.359375 C 36.542969 28.15625 33.304688 28.507812 29.113281 28.640625 C 32.398438 30.515625 40.769531 37.769531 40.910156 37.851562 C 53.375 31.847656 51.671875 15.324219 42.648438 10.109375 C 37.523438 7.144531 29.808594 7.992188 23.238281 7.992188 C 16.089844 7.992188 8.808594 8.128906 1.679688 7.976562 C 1.859375 9.246094 6.828125 15.0625 7.867188 18.226562 Z M 7.867188 18.226562 " fill-opacity="1" fill-rule="evenodd"/></g><g clip-path="url(#c302916636)"><path fill="#ffffff" d="M 4.515625 53.820312 L 15.273438 53.914062 C 16.640625 47.132812 17.441406 44.425781 15.714844 37.15625 C 15.125 34.675781 14.300781 32.457031 13.3125 30.203125 C 12.402344 28.140625 10.542969 25.371094 10.132812 23.789062 C 13.886719 25.066406 18.074219 27.621094 21.441406 29.738281 L 30.160156 36.394531 C 34.585938 40.722656 37.320312 43.128906 40.476562 48.8125 C 41.175781 50.0625 42.367188 53.148438 42.910156 53.953125 L 48.835938 53.976562 C 48.53125 51.464844 44.074219 44.898438 42.605469 42.996094 C 35.15625 33.34375 23.132812 24.128906 9.683594 23.085938 C 9.628906 27.078125 13.78125 36.117188 8.496094 47.636719 C 6.863281 51.1875 5.28125 52.128906 4.515625 53.820312 Z M 4.515625 53.820312 " fill-opacity="1" fill-rule="evenodd"/></g><g clip-path="url(#24a8dfcfb3)"><path fill="#ffffff" d="M 23.285156 53.980469 L 35.613281 54 C 35.171875 49.722656 27.945312 40.210938 25.886719 37.664062 C 20.347656 30.824219 13.785156 27.054688 11.789062 24.898438 C 16.902344 33.980469 22.199219 31.640625 23.285156 53.980469 Z M 23.285156 53.980469 " fill-opacity="1" fill-rule="evenodd"/></g></svg>