<svg xmlns="http://www.w3.org/2000/svg" xmlns:xlink="http://www.w3.org/1999/xlink" width="500" zoomAndPan="magnify" viewBox="0 0 375 374.999991" height="500" preserveAspectRatio="xMidYMid meet" version="1.0"><defs><g/><clipPath id="6bffb8bb9e"><path d="M 25.265625 133 L 140 133 L 140 205 L 25.265625 205 Z M 25.265625 133 " clip-rule="nonzero"/></clipPath><clipPath id="9b47870012"><path d="M 31 169 L 137 169 L 137 242.515625 L 31 242.515625 Z M 31 169 " clip-rule="nonzero"/></clipPath><clipPath id="6ff6b04524"><path d="M 49 174 L 106 174 L 106 242.515625 L 49 242.515625 Z M 49 174 " clip-rule="nonzero"/></clipPath></defs><g clip-path="url(#6bffb8bb9e)"><path fill="#000000" d="M 39.929688 158.390625 C 58.292969 159.507812 78.296875 158.066406 96.898438 158.5625 C 104.984375 158.777344 111.644531 164.027344 109.761719 172.855469 C 107.847656 181.796875 100.179688 182.632812 90.25 182.941406 C 98.035156 187.363281 117.863281 204.460938 118.199219 204.652344 C 147.71875 190.5 143.6875 151.550781 122.3125 139.253906 C 110.167969 132.265625 91.902344 134.261719 76.335938 134.261719 C 59.410156 134.261719 42.160156 134.582031 25.277344 134.222656 C 25.703125 137.21875 37.46875 150.9375 39.929688 158.390625 Z M 39.929688 158.390625 " fill-opacity="1" fill-rule="evenodd"/></g><g clip-path="url(#9b47870012)"><path fill="#ffffff" d="M 31.992188 242.296875 L 57.46875 242.519531 C 60.707031 226.535156 62.605469 220.152344 58.515625 203.019531 C 57.121094 197.171875 55.171875 191.9375 52.824219 186.625 C 50.675781 181.765625 46.261719 175.230469 45.296875 171.5 C 54.191406 174.519531 64.113281 180.542969 72.082031 185.53125 L 92.734375 201.21875 C 103.21875 211.421875 109.691406 217.101562 117.171875 230.496094 C 118.820312 233.445312 121.644531 240.71875 122.9375 242.613281 L 136.96875 242.664062 C 136.246094 236.75 125.691406 221.273438 122.210938 216.78125 C 104.570312 194.03125 76.082031 172.308594 44.230469 169.851562 C 44.101562 179.257812 53.941406 200.570312 41.417969 227.722656 C 37.558594 236.097656 33.804688 238.3125 31.992188 242.296875 Z M 31.992188 242.296875 " fill-opacity="1" fill-rule="evenodd"/></g><g clip-path="url(#6ff6b04524)"><path fill="#ffffff" d="M 76.445312 242.679688 L 105.652344 242.726562 C 104.597656 232.640625 87.488281 210.214844 82.609375 204.214844 C 69.496094 188.09375 53.945312 179.199219 49.21875 174.125 C 61.335938 195.527344 73.875 190.015625 76.445312 242.679688 Z M 76.445312 242.679688 " fill-opacity="1" fill-rule="evenodd"/></g><g fill="#ffffff" fill-opacity="1"><g transform="translate(150.894209, 201.374987)"><g><path d="M 16.40625 0 L 11.609375 -8.421875 L 8.1875 -8.421875 L 8.1875 0 L 2.828125 0 L 2.828125 -24.6875 L 12.796875 -24.6875 C 14.441406 -24.6875 15.910156 -24.332031 17.203125 -23.625 C 18.503906 -22.914062 19.53125 -21.953125 20.28125 -20.734375 C 21.03125 -19.515625 21.40625 -18.101562 21.40625 -16.5 C 21.40625 -14.90625 21 -13.476562 20.1875 -12.21875 C 19.375 -10.957031 18.285156 -10 16.921875 -9.34375 L 22.390625 0 Z M 8.1875 -19.75 L 8.1875 -13.359375 L 12.453125 -13.359375 C 13.554688 -13.359375 14.425781 -13.660156 15.0625 -14.265625 C 15.695312 -14.867188 16.015625 -15.628906 16.015625 -16.546875 C 16.015625 -17.484375 15.695312 -18.25 15.0625 -18.84375 C 14.425781 -19.445312 13.554688 -19.75 12.453125 -19.75 Z M 8.1875 -19.75 "/></g></g></g><g fill="#ffffff" fill-opacity="1"><g transform="translate(174.202229, 201.374987)"><g><path d="M 12.765625 0.53125 C 10.816406 0.53125 9.078125 0.113281 7.546875 -0.71875 C 6.015625 -1.550781 4.800781 -2.703125 3.90625 -4.171875 C 3.019531 -5.648438 2.578125 -7.351562 2.578125 -9.28125 L 2.578125 -24.6875 L 7.9375 -24.6875 L 7.9375 -9.515625 C 7.9375 -7.992188 8.390625 -6.78125 9.296875 -5.875 C 10.203125 -4.96875 11.359375 -4.515625 12.765625 -4.515625 C 14.203125 -4.515625 15.375 -4.96875 16.28125 -5.875 C 17.1875 -6.78125 17.640625 -7.992188 17.640625 -9.515625 L 17.640625 -24.6875 L 22.953125 -24.6875 L 22.953125 -9.28125 C 22.953125 -7.351562 22.507812 -5.648438 21.625 -4.171875 C 20.75 -2.703125 19.539062 -1.550781 18 -0.71875 C 16.457031 0.113281 14.710938 0.53125 12.765625 0.53125 Z M 12.765625 0.53125 "/></g></g></g><g fill="#ffffff" fill-opacity="1"><g transform="translate(199.73173, 201.374987)"><g><path d="M 17.5625 -19.71875 L 8.1875 -19.71875 L 8.1875 -14.28125 L 16.640625 -14.28125 L 16.640625 -9.453125 L 8.1875 -9.453125 L 8.1875 0 L 2.828125 0 L 2.828125 -24.6875 L 17.5625 -24.6875 Z M 17.5625 -19.71875 "/></g></g></g><g fill="#ffffff" fill-opacity="1"><g transform="translate(218.596765, 201.374987)"><g/></g></g><g fill="#ffffff" fill-opacity="1"><g transform="translate(227.024319, 201.374987)"><g><path d="M 19.859375 -24.6875 L 19.859375 -19.71875 L 12.984375 -19.71875 L 12.984375 0 L 7.625 0 L 7.625 -19.71875 L 0.78125 -19.71875 L 0.78125 -24.6875 Z M 19.859375 -24.6875 "/></g></g></g><g fill="#ffffff" fill-opacity="1"><g transform="translate(247.617183, 201.374987)"><g><path d="M 16.40625 0 L 11.609375 -8.421875 L 8.1875 -8.421875 L 8.1875 0 L 2.828125 0 L 2.828125 -24.6875 L 12.796875 -24.6875 C 14.441406 -24.6875 15.910156 -24.332031 17.203125 -23.625 C 18.503906 -22.914062 19.53125 -21.953125 20.28125 -20.734375 C 21.03125 -19.515625 21.40625 -18.101562 21.40625 -16.5 C 21.40625 -14.90625 21 -13.476562 20.1875 -12.21875 C 19.375 -10.957031 18.285156 -10 16.921875 -9.34375 L 22.390625 0 Z M 8.1875 -19.75 L 8.1875 -13.359375 L 12.453125 -13.359375 C 13.554688 -13.359375 14.425781 -13.660156 15.0625 -14.265625 C 15.695312 -14.867188 16.015625 -15.628906 16.015625 -16.546875 C 16.015625 -17.484375 15.695312 -18.25 15.0625 -18.84375 C 14.425781 -19.445312 13.554688 -19.75 12.453125 -19.75 Z M 8.1875 -19.75 "/></g></g></g><g fill="#ffffff" fill-opacity="1"><g transform="translate(270.925203, 201.374987)"><g><path d="M 19.21875 0 L 17.484375 -4.6875 L 7.65625 -4.6875 L 5.953125 0 L 0.3125 0 L 9.984375 -24.6875 L 15.015625 -24.6875 L 25 0 Z M 12.546875 -18.15625 L 9.34375 -9.34375 L 15.796875 -9.34375 Z M 12.546875 -18.15625 "/></g></g></g><g fill="#ffffff" fill-opacity="1"><g transform="translate(296.243137, 201.374987)"><g><path d="M 14.140625 0.53125 C 12.328125 0.53125 10.644531 0.207031 9.09375 -0.4375 C 7.539062 -1.082031 6.1875 -1.988281 5.03125 -3.15625 C 3.882812 -4.320312 2.992188 -5.6875 2.359375 -7.25 C 1.722656 -8.8125 1.40625 -10.5 1.40625 -12.3125 C 1.40625 -14.144531 1.722656 -15.847656 2.359375 -17.421875 C 2.992188 -18.992188 3.882812 -20.363281 5.03125 -21.53125 C 6.1875 -22.695312 7.539062 -23.601562 9.09375 -24.25 C 10.644531 -24.894531 12.328125 -25.21875 14.140625 -25.21875 C 16.140625 -25.21875 17.972656 -24.804688 19.640625 -23.984375 C 21.304688 -23.160156 22.703125 -22.003906 23.828125 -20.515625 C 24.960938 -19.035156 25.71875 -17.320312 26.09375 -15.375 L 20.734375 -15.375 C 20.242188 -16.832031 19.410156 -17.988281 18.234375 -18.84375 C 17.054688 -19.707031 15.691406 -20.140625 14.140625 -20.140625 C 12.753906 -20.140625 11.507812 -19.789062 10.40625 -19.09375 C 9.300781 -18.40625 8.425781 -17.472656 7.78125 -16.296875 C 7.132812 -15.117188 6.8125 -13.789062 6.8125 -12.3125 C 6.8125 -10.832031 7.132812 -9.507812 7.78125 -8.34375 C 8.425781 -7.175781 9.300781 -6.25 10.40625 -5.5625 C 11.507812 -4.882812 12.753906 -4.546875 14.140625 -4.546875 C 15.765625 -4.546875 17.160156 -5.003906 18.328125 -5.921875 C 19.503906 -6.835938 20.316406 -8.082031 20.765625 -9.65625 L 26.171875 -9.65625 C 25.796875 -7.613281 25.046875 -5.828125 23.921875 -4.296875 C 22.804688 -2.773438 21.40625 -1.585938 19.71875 -0.734375 C 18.039062 0.109375 16.179688 0.53125 14.140625 0.53125 Z M 14.140625 0.53125 "/></g></g></g><g fill="#ffffff" fill-opacity="1"><g transform="translate(323.429948, 201.374987)"><g><path d="M 23.421875 0 L 16.890625 0 L 8.1875 -12.0625 L 8.1875 0 L 2.828125 0 L 2.828125 -24.6875 L 8.1875 -24.6875 L 8.1875 -13.296875 L 16.25 -24.6875 L 22.5 -24.6875 L 14.078125 -12.875 Z M 23.421875 0 "/></g></g></g></svg>