<svg xmlns="http://www.w3.org/2000/svg" xmlns:xlink="http://www.w3.org/1999/xlink" width="500" zoomAndPan="magnify" viewBox="0 0 375 374.999991" height="500" preserveAspectRatio="xMidYMid meet" version="1.0"><defs><g/><clipPath id="b7f6588cc0"><path d="M 109.464844 87 L 250 87 L 250 175 L 109.464844 175 Z M 109.464844 87 " clip-rule="nonzero"/></clipPath><clipPath id="9197797686"><path d="M 117 131 L 247 131 L 247 220.824219 L 117 220.824219 Z M 117 131 " clip-rule="nonzero"/></clipPath><clipPath id="fbe894dbe4"><path d="M 138 137 L 208 137 L 208 220.824219 L 138 220.824219 Z M 138 137 " clip-rule="nonzero"/></clipPath></defs><g clip-path="url(#b7f6588cc0)"><path fill="#f1b92e" d="M 127.421875 117.824219 C 149.914062 119.195312 174.417969 117.429688 197.203125 118.035156 C 207.105469 118.296875 215.265625 124.730469 212.957031 135.542969 C 210.617188 146.496094 201.226562 147.519531 189.058594 147.898438 C 198.59375 153.316406 222.882812 174.257812 223.296875 174.492188 C 259.453125 157.15625 254.515625 109.445312 228.335938 94.382812 C 213.457031 85.824219 191.085938 88.269531 172.015625 88.269531 C 151.285156 88.269531 130.152344 88.664062 109.472656 88.222656 C 109.996094 91.890625 124.40625 108.695312 127.421875 117.824219 Z M 127.421875 117.824219 " fill-opacity="1" fill-rule="evenodd"/></g><g clip-path="url(#9197797686)"><path fill="#000000" d="M 117.703125 220.605469 L 148.90625 220.875 C 152.875 201.296875 155.195312 193.480469 150.191406 172.496094 C 148.480469 165.332031 146.089844 158.917969 143.214844 152.410156 C 140.585938 146.457031 135.179688 138.453125 133.996094 133.882812 C 144.890625 137.582031 157.042969 144.957031 166.808594 151.070312 L 192.101562 170.285156 C 204.945312 182.785156 212.875 189.738281 222.039062 206.148438 C 224.058594 209.761719 227.515625 218.667969 229.101562 220.992188 L 246.285156 221.054688 C 245.402344 213.808594 232.472656 194.847656 228.207031 189.347656 C 206.601562 161.484375 171.707031 134.871094 132.691406 131.863281 C 132.53125 143.386719 144.585938 169.492188 129.246094 202.753906 C 124.515625 213.007812 119.917969 215.726562 117.703125 220.605469 Z M 117.703125 220.605469 " fill-opacity="1" fill-rule="evenodd"/></g><g clip-path="url(#fbe894dbe4)"><path fill="#000000" d="M 172.152344 221.070312 L 207.925781 221.128906 C 206.636719 208.773438 185.675781 181.304688 179.699219 173.957031 C 163.640625 154.207031 144.589844 143.316406 138.800781 137.097656 C 153.640625 163.316406 169.003906 156.5625 172.152344 221.070312 Z M 172.152344 221.070312 " fill-opacity="1" fill-rule="evenodd"/></g><g fill="#000000" fill-opacity="1"><g transform="translate(89.662492, 265.734239)"><g><path d="M 16.40625 0 L 11.609375 -8.421875 L 8.1875 -8.421875 L 8.1875 0 L 2.828125 0 L 2.828125 -24.6875 L 12.796875 -24.6875 C 14.441406 -24.6875 15.910156 -24.332031 17.203125 -23.625 C 18.503906 -22.914062 19.53125 -21.953125 20.28125 -20.734375 C 21.03125 -19.515625 21.40625 -18.101562 21.40625 -16.5 C 21.40625 -14.90625 21 -13.476562 20.1875 -12.21875 C 19.375 -10.957031 18.285156 -10 16.921875 -9.34375 L 22.390625 0 Z M 8.1875 -19.75 L 8.1875 -13.359375 L 12.453125 -13.359375 C 13.554688 -13.359375 14.425781 -13.660156 15.0625 -14.265625 C 15.695312 -14.867188 16.015625 -15.628906 16.015625 -16.546875 C 16.015625 -17.484375 15.695312 -18.25 15.0625 -18.84375 C 14.425781 -19.445312 13.554688 -19.75 12.453125 -19.75 Z M 8.1875 -19.75 "/></g></g></g><g fill="#000000" fill-opacity="1"><g transform="translate(112.970512, 265.734239)"><g><path d="M 12.765625 0.53125 C 10.816406 0.53125 9.078125 0.113281 7.546875 -0.71875 C 6.015625 -1.550781 4.800781 -2.703125 3.90625 -4.171875 C 3.019531 -5.648438 2.578125 -7.351562 2.578125 -9.28125 L 2.578125 -24.6875 L 7.9375 -24.6875 L 7.9375 -9.515625 C 7.9375 -7.992188 8.390625 -6.78125 9.296875 -5.875 C 10.203125 -4.96875 11.359375 -4.515625 12.765625 -4.515625 C 14.203125 -4.515625 15.375 -4.96875 16.28125 -5.875 C 17.1875 -6.78125 17.640625 -7.992188 17.640625 -9.515625 L 17.640625 -24.6875 L 22.953125 -24.6875 L 22.953125 -9.28125 C 22.953125 -7.351562 22.507812 -5.648438 21.625 -4.171875 C 20.75 -2.703125 19.539062 -1.550781 18 -0.71875 C 16.457031 0.113281 14.710938 0.53125 12.765625 0.53125 Z M 12.765625 0.53125 "/></g></g></g><g fill="#000000" fill-opacity="1"><g transform="translate(138.500013, 265.734239)"><g><path d="M 17.5625 -19.71875 L 8.1875 -19.71875 L 8.1875 -14.28125 L 16.640625 -14.28125 L 16.640625 -9.453125 L 8.1875 -9.453125 L 8.1875 0 L 2.828125 0 L 2.828125 -24.6875 L 17.5625 -24.6875 Z M 17.5625 -19.71875 "/></g></g></g><g fill="#000000" fill-opacity="1"><g transform="translate(157.365048, 265.734239)"><g/></g></g><g fill="#000000" fill-opacity="1"><g transform="translate(165.792602, 265.734239)"><g><path d="M 19.859375 -24.6875 L 19.859375 -19.71875 L 12.984375 -19.71875 L 12.984375 0 L 7.625 0 L 7.625 -19.71875 L 0.78125 -19.71875 L 0.78125 -24.6875 Z M 19.859375 -24.6875 "/></g></g></g><g fill="#000000" fill-opacity="1"><g transform="translate(186.385466, 265.734239)"><g><path d="M 16.40625 0 L 11.609375 -8.421875 L 8.1875 -8.421875 L 8.1875 0 L 2.828125 0 L 2.828125 -24.6875 L 12.796875 -24.6875 C 14.441406 -24.6875 15.910156 -24.332031 17.203125 -23.625 C 18.503906 -22.914062 19.53125 -21.953125 20.28125 -20.734375 C 21.03125 -19.515625 21.40625 -18.101562 21.40625 -16.5 C 21.40625 -14.90625 21 -13.476562 20.1875 -12.21875 C 19.375 -10.957031 18.285156 -10 16.921875 -9.34375 L 22.390625 0 Z M 8.1875 -19.75 L 8.1875 -13.359375 L 12.453125 -13.359375 C 13.554688 -13.359375 14.425781 -13.660156 15.0625 -14.265625 C 15.695312 -14.867188 16.015625 -15.628906 16.015625 -16.546875 C 16.015625 -17.484375 15.695312 -18.25 15.0625 -18.84375 C 14.425781 -19.445312 13.554688 -19.75 12.453125 -19.75 Z M 8.1875 -19.75 "/></g></g></g><g fill="#000000" fill-opacity="1"><g transform="translate(209.693486, 265.734239)"><g><path d="M 19.21875 0 L 17.484375 -4.6875 L 7.65625 -4.6875 L 5.953125 0 L 0.3125 0 L 9.984375 -24.6875 L 15.015625 -24.6875 L 25 0 Z M 12.546875 -18.15625 L 9.34375 -9.34375 L 15.796875 -9.34375 Z M 12.546875 -18.15625 "/></g></g></g><g fill="#000000" fill-opacity="1"><g transform="translate(235.01142, 265.734239)"><g><path d="M 14.140625 0.53125 C 12.328125 0.53125 10.644531 0.207031 9.09375 -0.4375 C 7.539062 -1.082031 6.1875 -1.988281 5.03125 -3.15625 C 3.882812 -4.320312 2.992188 -5.6875 2.359375 -7.25 C 1.722656 -8.8125 1.40625 -10.5 1.40625 -12.3125 C 1.40625 -14.144531 1.722656 -15.847656 2.359375 -17.421875 C 2.992188 -18.992188 3.882812 -20.363281 5.03125 -21.53125 C 6.1875 -22.695312 7.539062 -23.601562 9.09375 -24.25 C 10.644531 -24.894531 12.328125 -25.21875 14.140625 -25.21875 C 16.140625 -25.21875 17.972656 -24.804688 19.640625 -23.984375 C 21.304688 -23.160156 22.703125 -22.003906 23.828125 -20.515625 C 24.960938 -19.035156 25.71875 -17.320312 26.09375 -15.375 L 20.734375 -15.375 C 20.242188 -16.832031 19.410156 -17.988281 18.234375 -18.84375 C 17.054688 -19.707031 15.691406 -20.140625 14.140625 -20.140625 C 12.753906 -20.140625 11.507812 -19.789062 10.40625 -19.09375 C 9.300781 -18.40625 8.425781 -17.472656 7.78125 -16.296875 C 7.132812 -15.117188 6.8125 -13.789062 6.8125 -12.3125 C 6.8125 -10.832031 7.132812 -9.507812 7.78125 -8.34375 C 8.425781 -7.175781 9.300781 -6.25 10.40625 -5.5625 C 11.507812 -4.882812 12.753906 -4.546875 14.140625 -4.546875 C 15.765625 -4.546875 17.160156 -5.003906 18.328125 -5.921875 C 19.503906 -6.835938 20.316406 -8.082031 20.765625 -9.65625 L 26.171875 -9.65625 C 25.796875 -7.613281 25.046875 -5.828125 23.921875 -4.296875 C 22.804688 -2.773438 21.40625 -1.585938 19.71875 -0.734375 C 18.039062 0.109375 16.179688 0.53125 14.140625 0.53125 Z M 14.140625 0.53125 "/></g></g></g><g fill="#000000" fill-opacity="1"><g transform="translate(262.198231, 265.734239)"><g><path d="M 23.421875 0 L 16.890625 0 L 8.1875 -12.0625 L 8.1875 0 L 2.828125 0 L 2.828125 -24.6875 L 8.1875 -24.6875 L 8.1875 -13.296875 L 16.25 -24.6875 L 22.5 -24.6875 L 14.078125 -12.875 Z M 23.421875 0 "/></g></g></g><g fill="#000000" fill-opacity="1"><g transform="translate(89.662492, 265.734239)"><g><path d="M 16.40625 0 L 11.609375 -8.421875 L 8.1875 -8.421875 L 8.1875 0 L 2.828125 0 L 2.828125 -24.6875 L 12.796875 -24.6875 C 14.441406 -24.6875 15.910156 -24.332031 17.203125 -23.625 C 18.503906 -22.914062 19.53125 -21.953125 20.28125 -20.734375 C 21.03125 -19.515625 21.40625 -18.101562 21.40625 -16.5 C 21.40625 -14.90625 21 -13.476562 20.1875 -12.21875 C 19.375 -10.957031 18.285156 -10 16.921875 -9.34375 L 22.390625 0 Z M 8.1875 -19.75 L 8.1875 -13.359375 L 12.453125 -13.359375 C 13.554688 -13.359375 14.425781 -13.660156 15.0625 -14.265625 C 15.695312 -14.867188 16.015625 -15.628906 16.015625 -16.546875 C 16.015625 -17.484375 15.695312 -18.25 15.0625 -18.84375 C 14.425781 -19.445312 13.554688 -19.75 12.453125 -19.75 Z M 8.1875 -19.75 "/></g></g></g><g fill="#000000" fill-opacity="1"><g transform="translate(112.970512, 265.734239)"><g><path d="M 12.765625 0.53125 C 10.816406 0.53125 9.078125 0.113281 7.546875 -0.71875 C 6.015625 -1.550781 4.800781 -2.703125 3.90625 -4.171875 C 3.019531 -5.648438 2.578125 -7.351562 2.578125 -9.28125 L 2.578125 -24.6875 L 7.9375 -24.6875 L 7.9375 -9.515625 C 7.9375 -7.992188 8.390625 -6.78125 9.296875 -5.875 C 10.203125 -4.96875 11.359375 -4.515625 12.765625 -4.515625 C 14.203125 -4.515625 15.375 -4.96875 16.28125 -5.875 C 17.1875 -6.78125 17.640625 -7.992188 17.640625 -9.515625 L 17.640625 -24.6875 L 22.953125 -24.6875 L 22.953125 -9.28125 C 22.953125 -7.351562 22.507812 -5.648438 21.625 -4.171875 C 20.75 -2.703125 19.539062 -1.550781 18 -0.71875 C 16.457031 0.113281 14.710938 0.53125 12.765625 0.53125 Z M 12.765625 0.53125 "/></g></g></g><g fill="#000000" fill-opacity="1"><g transform="translate(138.500013, 265.734239)"><g><path d="M 17.5625 -19.71875 L 8.1875 -19.71875 L 8.1875 -14.28125 L 16.640625 -14.28125 L 16.640625 -9.453125 L 8.1875 -9.453125 L 8.1875 0 L 2.828125 0 L 2.828125 -24.6875 L 17.5625 -24.6875 Z M 17.5625 -19.71875 "/></g></g></g><g fill="#000000" fill-opacity="1"><g transform="translate(157.365048, 265.734239)"><g/></g></g><g fill="#000000" fill-opacity="1"><g transform="translate(165.792602, 265.734239)"><g><path d="M 19.859375 -24.6875 L 19.859375 -19.71875 L 12.984375 -19.71875 L 12.984375 0 L 7.625 0 L 7.625 -19.71875 L 0.78125 -19.71875 L 0.78125 -24.6875 Z M 19.859375 -24.6875 "/></g></g></g><g fill="#000000" fill-opacity="1"><g transform="translate(186.385466, 265.734239)"><g><path d="M 16.40625 0 L 11.609375 -8.421875 L 8.1875 -8.421875 L 8.1875 0 L 2.828125 0 L 2.828125 -24.6875 L 12.796875 -24.6875 C 14.441406 -24.6875 15.910156 -24.332031 17.203125 -23.625 C 18.503906 -22.914062 19.53125 -21.953125 20.28125 -20.734375 C 21.03125 -19.515625 21.40625 -18.101562 21.40625 -16.5 C 21.40625 -14.90625 21 -13.476562 20.1875 -12.21875 C 19.375 -10.957031 18.285156 -10 16.921875 -9.34375 L 22.390625 0 Z M 8.1875 -19.75 L 8.1875 -13.359375 L 12.453125 -13.359375 C 13.554688 -13.359375 14.425781 -13.660156 15.0625 -14.265625 C 15.695312 -14.867188 16.015625 -15.628906 16.015625 -16.546875 C 16.015625 -17.484375 15.695312 -18.25 15.0625 -18.84375 C 14.425781 -19.445312 13.554688 -19.75 12.453125 -19.75 Z M 8.1875 -19.75 "/></g></g></g><g fill="#000000" fill-opacity="1"><g transform="translate(209.693486, 265.734239)"><g><path d="M 19.21875 0 L 17.484375 -4.6875 L 7.65625 -4.6875 L 5.953125 0 L 0.3125 0 L 9.984375 -24.6875 L 15.015625 -24.6875 L 25 0 Z M 12.546875 -18.15625 L 9.34375 -9.34375 L 15.796875 -9.34375 Z M 12.546875 -18.15625 "/></g></g></g><g fill="#000000" fill-opacity="1"><g transform="translate(235.01142, 265.734239)"><g><path d="M 14.140625 0.53125 C 12.328125 0.53125 10.644531 0.207031 9.09375 -0.4375 C 7.539062 -1.082031 6.1875 -1.988281 5.03125 -3.15625 C 3.882812 -4.320312 2.992188 -5.6875 2.359375 -7.25 C 1.722656 -8.8125 1.40625 -10.5 1.40625 -12.3125 C 1.40625 -14.144531 1.722656 -15.847656 2.359375 -17.421875 C 2.992188 -18.992188 3.882812 -20.363281 5.03125 -21.53125 C 6.1875 -22.695312 7.539062 -23.601562 9.09375 -24.25 C 10.644531 -24.894531 12.328125 -25.21875 14.140625 -25.21875 C 16.140625 -25.21875 17.972656 -24.804688 19.640625 -23.984375 C 21.304688 -23.160156 22.703125 -22.003906 23.828125 -20.515625 C 24.960938 -19.035156 25.71875 -17.320312 26.09375 -15.375 L 20.734375 -15.375 C 20.242188 -16.832031 19.410156 -17.988281 18.234375 -18.84375 C 17.054688 -19.707031 15.691406 -20.140625 14.140625 -20.140625 C 12.753906 -20.140625 11.507812 -19.789062 10.40625 -19.09375 C 9.300781 -18.40625 8.425781 -17.472656 7.78125 -16.296875 C 7.132812 -15.117188 6.8125 -13.789062 6.8125 -12.3125 C 6.8125 -10.832031 7.132812 -9.507812 7.78125 -8.34375 C 8.425781 -7.175781 9.300781 -6.25 10.40625 -5.5625 C 11.507812 -4.882812 12.753906 -4.546875 14.140625 -4.546875 C 15.765625 -4.546875 17.160156 -5.003906 18.328125 -5.921875 C 19.503906 -6.835938 20.316406 -8.082031 20.765625 -9.65625 L 26.171875 -9.65625 C 25.796875 -7.613281 25.046875 -5.828125 23.921875 -4.296875 C 22.804688 -2.773438 21.40625 -1.585938 19.71875 -0.734375 C 18.039062 0.109375 16.179688 0.53125 14.140625 0.53125 Z M 14.140625 0.53125 "/></g></g></g><g fill="#000000" fill-opacity="1"><g transform="translate(262.198231, 265.734239)"><g><path d="M 23.421875 0 L 16.890625 0 L 8.1875 -12.0625 L 8.1875 0 L 2.828125 0 L 2.828125 -24.6875 L 8.1875 -24.6875 L 8.1875 -13.296875 L 16.25 -24.6875 L 22.5 -24.6875 L 14.078125 -12.875 Z M 23.421875 0 "/></g></g></g></svg>