<svg width="19" height="19" viewBox="0 0 19 19" fill="none" xmlns="http://www.w3.org/2000/svg">
<path d="M8.16602 1.20947H6.49935C2.33268 1.20947 0.666016 2.87614 0.666016 7.04281V12.0428C0.666016 16.2095 2.33268 17.8761 6.49935 17.8761H11.4993C15.666 17.8761 17.3327 16.2095 17.3327 12.0428V10.3761" stroke="#5F66E9" stroke-linecap="round" stroke-linejoin="round"/>
<path d="M12.3656 2.05936L5.79892 8.62602C5.54892 8.87602 5.29892 9.36769 5.24892 9.72602L4.89059 12.2344C4.75726 13.1427 5.39892 13.776 6.30726 13.651L8.81559 13.2927C9.16559 13.2427 9.65726 12.9927 9.91559 12.7427L16.4823 6.17602C17.6156 5.04269 18.1489 3.72602 16.4823 2.05936C14.8156 0.392691 13.4989 0.926024 12.3656 2.05936Z" stroke="#5F66E9" stroke-miterlimit="10" stroke-linecap="round" stroke-linejoin="round"/>
<path d="M11.4238 3.00098C11.9822 4.99264 13.5405 6.55098 15.5405 7.11764" stroke="#5F66E9" stroke-miterlimit="10" stroke-linecap="round" stroke-linejoin="round"/>
</svg>
