<svg width="22" height="12" viewBox="0 0 22 12" fill="none" xmlns="http://www.w3.org/2000/svg">
<path d="M2.376 11.312V0.815999H10.44V3.04H4.872V5.344H9.88V7.472H4.872V9.792H10.616V11.312H12.168V12H0.824V11.312H2.376ZM21.6768 11.312V12H11.4688V11.312H13.6448C13.0581 11.0133 12.5248 10.6293 12.0448 10.16L13.5328 8.336C14.7381 9.392 15.8528 9.92 16.8768 9.92C17.3354 9.92 17.6928 9.824 17.9488 9.632C18.2154 9.42933 18.3488 9.16267 18.3488 8.832C18.3488 8.49067 18.2101 8.224 17.9328 8.032C17.6554 7.82933 17.1061 7.62667 16.2848 7.424C14.9834 7.11467 14.0288 6.71467 13.4208 6.224C12.8234 5.72267 12.5247 4.944 12.5247 3.888C12.5247 2.82133 12.9034 2 13.6608 1.424C14.4288 0.848 15.3834 0.559999 16.5248 0.559999C17.2714 0.559999 18.0181 0.687999 18.7648 0.943999C19.5114 1.2 20.1621 1.56267 20.7168 2.032L19.4528 3.856C18.4821 3.12 17.4794 2.752 16.4448 2.752C16.0288 2.752 15.6981 2.85333 15.4528 3.056C15.2181 3.248 15.1008 3.50933 15.1008 3.84C15.1008 4.16 15.2448 4.416 15.5328 4.608C15.8314 4.8 16.5088 5.02933 17.5648 5.296C18.6314 5.552 19.4581 5.94133 20.0448 6.464C20.6314 6.98667 20.9248 7.712 20.9248 8.64C20.9248 9.792 20.4928 10.6827 19.6288 11.312H21.6768Z" fill="white"/>
</svg>
