<svg width="34" height="36" viewBox="0 0 34 36" fill="none" xmlns="http://www.w3.org/2000/svg">
<path fill-rule="evenodd" clip-rule="evenodd" d="M13.8973 1.02506C14.6438 0.801113 15.4324 0.754786 16.2 0.889775C16.9676 1.02476 17.693 1.33733 18.3183 1.80252C18.9437 2.26772 19.4516 2.87265 19.8016 3.56905C20.1515 4.26544 20.3339 5.034 20.334 5.81339V30.1867C20.3339 30.9661 20.1515 31.7347 19.8016 32.4311C19.4516 33.1275 18.9437 33.7324 18.3183 34.1976C17.693 34.6628 16.9676 34.9753 16.2 35.1103C15.4324 35.2453 14.6438 35.199 13.8973 34.9751L3.89732 31.9751C2.86749 31.6661 1.96467 31.0335 1.32279 30.1709C0.680907 29.3084 0.334161 28.2619 0.333984 27.1867V8.81339C0.334161 7.73822 0.680907 6.69174 1.32279 5.8292C1.96467 4.96665 2.86749 4.33399 3.89732 4.02506L13.8973 1.02506ZM22.0007 4.66672C22.0007 4.22469 22.1762 3.80077 22.4888 3.48821C22.8014 3.17565 23.2253 3.00006 23.6673 3.00006H28.6673C29.9934 3.00006 31.2652 3.52684 32.2029 4.46452C33.1405 5.4022 33.6673 6.67397 33.6673 8.00006V9.66672C33.6673 10.1088 33.4917 10.5327 33.1792 10.8452C32.8666 11.1578 32.4427 11.3334 32.0007 11.3334C31.5586 11.3334 31.1347 11.1578 30.8221 10.8452C30.5096 10.5327 30.334 10.1088 30.334 9.66672V8.00006C30.334 7.55803 30.1584 7.13411 29.8458 6.82154C29.5333 6.50898 29.1093 6.33339 28.6673 6.33339H23.6673C23.2253 6.33339 22.8014 6.15779 22.4888 5.84523C22.1762 5.53267 22.0007 5.10875 22.0007 4.66672ZM32.0007 24.6667C32.4427 24.6667 32.8666 24.8423 33.1792 25.1549C33.4917 25.4674 33.6673 25.8914 33.6673 26.3334V28.0001C33.6673 29.3261 33.1405 30.5979 32.2029 31.5356C31.2652 32.4733 29.9934 33.0001 28.6673 33.0001H23.6673C23.2253 33.0001 22.8014 32.8245 22.4888 32.5119C22.1762 32.1993 22.0007 31.7754 22.0007 31.3334C22.0007 30.8914 22.1762 30.4674 22.4888 30.1549C22.8014 29.8423 23.2253 29.6667 23.6673 29.6667H28.6673C29.1093 29.6667 29.5333 29.4911 29.8458 29.1786C30.1584 28.866 30.334 28.4421 30.334 28.0001V26.3334C30.334 25.8914 30.5096 25.4674 30.8221 25.1549C31.1347 24.8423 31.5586 24.6667 32.0007 24.6667ZM12.0007 16.3334C11.5586 16.3334 11.1347 16.509 10.8221 16.8215C10.5096 17.1341 10.334 17.558 10.334 18.0001C10.334 18.4421 10.5096 18.866 10.8221 19.1786C11.1347 19.4911 11.5586 19.6667 12.0007 19.6667H12.0023C12.4443 19.6667 12.8683 19.4911 13.1808 19.1786C13.4934 18.866 13.669 18.4421 13.669 18.0001C13.669 17.558 13.4934 17.1341 13.1808 16.8215C12.8683 16.509 12.4443 16.3334 12.0023 16.3334H12.0007Z" fill="#292D32"/>
<path d="M32.0013 18.0001L28.668 21.3334M23.668 18.0001H32.0013H23.668ZM32.0013 18.0001L28.668 14.6667L32.0013 18.0001Z" stroke="#FFA500" stroke-width="3.33333" stroke-linecap="round" stroke-linejoin="round"/>
</svg>
