<svg width="32" height="32" viewBox="0 0 32 32" fill="none" xmlns="http://www.w3.org/2000/svg">
<path d="M28.0809 15.76L27.8676 15.4667C27.4942 15.0134 27.0542 14.6534 26.5476 14.3867C25.8676 14 25.0942 13.8 24.2942 13.8H7.69425C6.89425 13.8 6.13425 14 5.44091 14.3867C4.92091 14.6667 4.45425 15.0534 4.06758 15.5334C3.30758 16.5067 2.94758 17.7067 3.06758 18.9067L3.56091 25.1334C3.73425 27.0134 3.96091 29.3334 8.18758 29.3334H23.8142C28.0409 29.3334 28.2542 27.0134 28.4409 25.12L28.9342 18.92C29.0542 17.8 28.7609 16.68 28.0809 15.76ZM19.1876 23.12H12.8009C12.2809 23.12 11.8676 22.6934 11.8676 22.1867C11.8676 21.68 12.2809 21.2534 12.8009 21.2534H19.1876C19.7076 21.2534 20.1209 21.68 20.1209 22.1867C20.1209 22.7067 19.7076 23.12 19.1876 23.12Z" fill="#FF333F"/>
<path opacity="0.4" d="M4.50586 15.0801C4.79919 14.8134 5.09253 14.5734 5.43919 14.3867C6.11919 14.0001 6.89253 13.8001 7.69253 13.8001H24.3059C25.1059 13.8001 25.8659 14.0001 26.5592 14.3867C26.9059 14.5734 27.2125 14.8134 27.4925 15.0934V14.3867V13.0934C27.4925 8.33341 26.0392 6.88008 21.2792 6.88008H18.1059C17.5192 6.88008 17.5059 6.86675 17.1592 6.41341L15.5592 4.26675C14.7992 3.28008 14.1992 2.66675 12.2925 2.66675H10.7192C5.95919 2.66675 4.50586 4.12008 4.50586 8.88008V14.4001V15.0801Z" fill="#FF333F"/>
</svg>
