<svg width="16" height="17" viewBox="0 0 16 17" fill="none" xmlns="http://www.w3.org/2000/svg">
<path d="M8.18718 5.81438e-09C8.87917 -4.53024e-05 9.54494 0.264707 10.0479 0.739946C10.5509 1.21518 10.853 1.86488 10.8921 2.55576L10.8963 2.70914H15.2726C15.431 2.70918 15.5835 2.76936 15.6992 2.8775C15.815 2.98563 15.8854 3.13368 15.8962 3.29171C15.9069 3.44974 15.8574 3.60598 15.7574 3.72885C15.6574 3.85173 15.5146 3.93208 15.3576 3.95367L15.2726 3.95951H14.6091L13.5421 14.8127C13.4886 15.3538 13.2446 15.8583 12.8535 16.236C12.4625 16.6138 11.9499 16.8403 11.4073 16.875L11.2606 16.88H5.11377C4.56983 16.88 4.04361 16.6865 3.62917 16.3342C3.21472 15.982 2.93906 15.4938 2.85143 14.9569L2.83226 14.8119L1.76444 3.95951H1.10175C0.950672 3.9595 0.804708 3.90479 0.69085 3.80549C0.576993 3.70619 0.502944 3.56902 0.482398 3.41935L0.476562 3.33432C0.476569 3.18324 0.531281 3.03728 0.630581 2.92342C0.72988 2.80957 0.86705 2.73552 1.01672 2.71497L1.10175 2.70914H5.47804C5.47804 1.99063 5.76347 1.30155 6.27153 0.793487C6.77959 0.285426 7.46867 5.81438e-09 8.18718 5.81438e-09ZM13.3529 3.95951H3.02065L4.0768 14.6894C4.10018 14.9288 4.20569 15.1527 4.3754 15.3232C4.54512 15.4937 4.7686 15.6002 5.0079 15.6246L5.11377 15.6296H11.2606C11.7607 15.6296 12.185 15.2754 12.2817 14.7944L12.2984 14.6894L13.352 3.95951H13.3529ZM9.64595 6.25185C9.79702 6.25186 9.94298 6.30657 10.0568 6.40587C10.1707 6.50517 10.2447 6.64234 10.2653 6.79201L10.2711 6.87704V12.7121C10.2711 12.8705 10.2109 13.023 10.1028 13.1387C9.99463 13.2545 9.84659 13.3248 9.68856 13.3356C9.53053 13.3464 9.37429 13.2968 9.25141 13.1969C9.12854 13.0969 9.04819 12.954 9.0266 12.7971L9.02076 12.7121V6.87704C9.02076 6.71123 9.08663 6.55221 9.20387 6.43496C9.32112 6.31772 9.48014 6.25185 9.64595 6.25185ZM6.72841 6.25185C6.87949 6.25186 7.02545 6.30657 7.13931 6.40587C7.25317 6.50517 7.32722 6.64234 7.34776 6.79201L7.3536 6.87704V12.7121C7.35355 12.8705 7.29338 13.023 7.18524 13.1387C7.0771 13.2545 6.92906 13.3248 6.77103 13.3356C6.613 13.3464 6.45676 13.2968 6.33388 13.1969C6.21101 13.0969 6.13066 12.954 6.10906 12.7971L6.10323 12.7121V6.87704C6.10323 6.71123 6.1691 6.55221 6.28634 6.43496C6.40359 6.31772 6.5626 6.25185 6.72841 6.25185ZM8.18718 1.25037C7.82108 1.25038 7.46837 1.38805 7.19906 1.63605C6.92975 1.88405 6.76354 2.22424 6.73342 2.5891L6.72841 2.70914H9.64595C9.64595 2.32225 9.49225 1.9512 9.21868 1.67763C8.94511 1.40406 8.57407 1.25037 8.18718 1.25037Z" fill="#5F66E9"/>
</svg>
