<svg width="24" height="29" viewBox="0 0 24 29" fill="none" xmlns="http://www.w3.org/2000/svg">
<g filter="url(#filter0_d_902_3518)">
<path fill-rule="evenodd" clip-rule="evenodd" d="M18.002 3.94824V20.0512C18.002 20.5732 17.575 21.0002 17.053 21.0002H16.951C16.429 21.0002 16.002 20.5732 16.002 20.0512V3.94824C16.002 3.42624 16.429 3.00024 16.951 3.00024H17.053C17.575 3.00024 18.002 3.42624 18.002 3.94824ZM13.002 20.0512V3.94824C13.002 3.42624 12.575 3.00024 12.053 3.00024H11.951C11.429 3.00024 11.002 3.42624 11.002 3.94824V20.0512C11.002 20.5732 11.429 21.0002 11.951 21.0002H12.053C12.575 21.0002 13.002 20.5732 13.002 20.0512ZM8.00195 20.0512V3.94824C8.00195 3.42624 7.57495 3.00024 7.05295 3.00024H6.95095C6.42895 3.00024 6.00195 3.42624 6.00195 3.94824V20.0512C6.00195 20.5732 6.42895 21.0002 6.95095 21.0002H7.05295C7.57495 21.0002 8.00195 20.5732 8.00195 20.0512Z" fill="#2E3A59"/>
</g>
<defs>
<filter id="filter0_d_902_3518" x="-3.99805" y="0" width="32" height="32" filterUnits="userSpaceOnUse" color-interpolation-filters="sRGB">
<feFlood flood-opacity="0" result="BackgroundImageFix"/>
<feColorMatrix in="SourceAlpha" type="matrix" values="0 0 0 0 0 0 0 0 0 0 0 0 0 0 0 0 0 0 127 0" result="hardAlpha"/>
<feOffset dy="4"/>
<feGaussianBlur stdDeviation="2"/>
<feComposite in2="hardAlpha" operator="out"/>
<feColorMatrix type="matrix" values="0 0 0 0 0 0 0 0 0 0 0 0 0 0 0 0 0 0 0.25 0"/>
<feBlend mode="normal" in2="BackgroundImageFix" result="effect1_dropShadow_902_3518"/>
<feBlend mode="normal" in="SourceGraphic" in2="effect1_dropShadow_902_3518" result="shape"/>
</filter>
</defs>
</svg>
