<svg xmlns="http://www.w3.org/2000/svg" xmlns:xlink="http://www.w3.org/1999/xlink" width="500" zoomAndPan="magnify" viewBox="0 0 375 374.999991" height="500" preserveAspectRatio="xMidYMid meet" version="1.0"><defs><clipPath id="85cf0546c5"><path d="M 32.386719 51 L 322 51 L 322 231 L 32.386719 231 Z M 32.386719 51 " clip-rule="nonzero"/></clipPath><clipPath id="def2dc22b5"><path d="M 49 142 L 316 142 L 316 327.324219 L 49 327.324219 Z M 49 142 " clip-rule="nonzero"/></clipPath><clipPath id="5bc9be591c"><path d="M 93 153 L 237 153 L 237 327.324219 L 93 327.324219 Z M 93 153 " clip-rule="nonzero"/></clipPath></defs><rect x="-37.5" width="450" fill="#ffffff" y="-37.499999" height="449.999989" fill-opacity="1"/><rect x="-37.5" width="450" fill="#f1b92e" y="-37.499999" height="449.999989" fill-opacity="1"/><g clip-path="url(#85cf0546c5)"><path fill="#000000" d="M 69.515625 113.761719 C 116.039062 116.597656 166.722656 112.949219 213.847656 114.199219 C 234.328125 114.742188 251.203125 128.046875 246.429688 150.40625 C 241.589844 173.058594 222.164062 175.179688 197 175.960938 C 216.722656 187.167969 266.957031 230.480469 267.808594 230.960938 C 342.59375 195.109375 332.382812 96.433594 278.234375 65.277344 C 247.464844 47.574219 201.191406 52.636719 161.75 52.636719 C 118.875 52.636719 75.167969 53.449219 32.398438 52.535156 C 33.480469 60.125 63.285156 94.878906 69.515625 113.761719 Z M 69.515625 113.761719 " fill-opacity="1" fill-rule="evenodd"/></g><g clip-path="url(#def2dc22b5)"><path fill="#ffffff" d="M 49.417969 326.335938 L 113.957031 326.898438 C 122.164062 286.40625 126.964844 270.238281 116.609375 226.832031 C 113.074219 212.015625 108.132812 198.75 102.1875 185.296875 C 96.746094 172.980469 85.566406 156.425781 83.121094 146.976562 C 105.648438 154.625 130.785156 169.882812 150.980469 182.523438 L 203.296875 222.265625 C 229.859375 248.113281 246.257812 262.5 265.210938 296.4375 C 269.386719 303.914062 276.535156 322.335938 279.816406 327.136719 L 315.355469 327.269531 C 313.53125 312.285156 286.792969 273.070312 277.972656 261.695312 C 233.28125 204.058594 161.113281 149.023438 80.417969 142.800781 C 80.085938 166.632812 105.019531 220.621094 73.296875 289.417969 C 63.511719 310.625 54.003906 316.246094 49.417969 326.335938 Z M 49.417969 326.335938 " fill-opacity="1" fill-rule="evenodd"/></g><g clip-path="url(#5bc9be591c)"><path fill="#ffffff" d="M 162.03125 327.300781 L 236.023438 327.417969 C 233.355469 301.867188 190.003906 245.058594 177.644531 229.855469 C 144.425781 189.011719 105.027344 166.484375 93.054688 153.625 C 123.75 207.851562 155.519531 193.882812 162.03125 327.300781 Z M 162.03125 327.300781 " fill-opacity="1" fill-rule="evenodd"/></g></svg>