<svg xmlns="http://www.w3.org/2000/svg" xmlns:xlink="http://www.w3.org/1999/xlink" width="500" zoomAndPan="magnify" viewBox="0 0 375 374.999991" height="500" preserveAspectRatio="xMidYMid meet" version="1.0"><defs><g/><clipPath id="67bae90092"><path d="M 25.265625 133 L 140 133 L 140 205 L 25.265625 205 Z M 25.265625 133 " clip-rule="nonzero"/></clipPath><clipPath id="306eab08e9"><path d="M 31 169 L 137 169 L 137 242.515625 L 31 242.515625 Z M 31 169 " clip-rule="nonzero"/></clipPath><clipPath id="a084fff1be"><path d="M 49 174 L 106 174 L 106 242.515625 L 49 242.515625 Z M 49 174 " clip-rule="nonzero"/></clipPath></defs><rect x="-37.5" width="450" fill="#ffffff" y="-37.499999" height="449.999989" fill-opacity="1"/><rect x="-37.5" width="450" fill="#f1b92e" y="-37.499999" height="449.999989" fill-opacity="1"/><g clip-path="url(#67bae90092)"><path fill="#000000" d="M 39.929688 158.390625 C 58.292969 159.507812 78.296875 158.066406 96.898438 158.5625 C 104.984375 158.777344 111.644531 164.027344 109.761719 172.855469 C 107.847656 181.796875 100.179688 182.632812 90.25 182.941406 C 98.035156 187.363281 117.863281 204.460938 118.199219 204.652344 C 147.71875 190.5 143.6875 151.550781 122.3125 139.253906 C 110.167969 132.265625 91.902344 134.261719 76.335938 134.261719 C 59.410156 134.261719 42.160156 134.582031 25.277344 134.222656 C 25.703125 137.21875 37.46875 150.9375 39.929688 158.390625 Z M 39.929688 158.390625 " fill-opacity="1" fill-rule="evenodd"/></g><g clip-path="url(#306eab08e9)"><path fill="#ffffff" d="M 31.992188 242.296875 L 57.46875 242.519531 C 60.707031 226.535156 62.605469 220.152344 58.515625 203.019531 C 57.121094 197.171875 55.171875 191.9375 52.824219 186.625 C 50.675781 181.765625 46.261719 175.230469 45.296875 171.5 C 54.191406 174.519531 64.113281 180.542969 72.082031 185.53125 L 92.734375 201.21875 C 103.21875 211.421875 109.691406 217.101562 117.171875 230.496094 C 118.820312 233.445312 121.644531 240.71875 122.9375 242.613281 L 136.96875 242.664062 C 136.246094 236.75 125.691406 221.273438 122.210938 216.78125 C 104.570312 194.03125 76.082031 172.308594 44.230469 169.851562 C 44.101562 179.257812 53.941406 200.570312 41.417969 227.722656 C 37.558594 236.097656 33.804688 238.3125 31.992188 242.296875 Z M 31.992188 242.296875 " fill-opacity="1" fill-rule="evenodd"/></g><g clip-path="url(#a084fff1be)"><path fill="#ffffff" d="M 76.445312 242.679688 L 105.652344 242.726562 C 104.597656 232.640625 87.488281 210.214844 82.609375 204.214844 C 69.496094 188.09375 53.945312 179.199219 49.21875 174.125 C 61.335938 195.527344 73.875 190.015625 76.445312 242.679688 Z M 76.445312 242.679688 " fill-opacity="1" fill-rule="evenodd"/></g><g fill="#ffffff" fill-opacity="1"><g transform="translate(150.894209, 190.514987)"><g><path d="M 16.40625 0 L 11.609375 -8.421875 L 8.1875 -8.421875 L 8.1875 0 L 2.828125 0 L 2.828125 -24.6875 L 12.796875 -24.6875 C 14.441406 -24.6875 15.910156 -24.332031 17.203125 -23.625 C 18.503906 -22.914062 19.53125 -21.953125 20.28125 -20.734375 C 21.03125 -19.515625 21.40625 -18.101562 21.40625 -16.5 C 21.40625 -14.90625 21 -13.476562 20.1875 -12.21875 C 19.375 -10.957031 18.285156 -10 16.921875 -9.34375 L 22.390625 0 Z M 8.1875 -19.75 L 8.1875 -13.359375 L 12.453125 -13.359375 C 13.554688 -13.359375 14.425781 -13.660156 15.0625 -14.265625 C 15.695312 -14.867188 16.015625 -15.628906 16.015625 -16.546875 C 16.015625 -17.484375 15.695312 -18.25 15.0625 -18.84375 C 14.425781 -19.445312 13.554688 -19.75 12.453125 -19.75 Z M 8.1875 -19.75 "/></g></g></g><g fill="#ffffff" fill-opacity="1"><g transform="translate(174.202229, 190.514987)"><g><path d="M 12.765625 0.53125 C 10.816406 0.53125 9.078125 0.113281 7.546875 -0.71875 C 6.015625 -1.550781 4.800781 -2.703125 3.90625 -4.171875 C 3.019531 -5.648438 2.578125 -7.351562 2.578125 -9.28125 L 2.578125 -24.6875 L 7.9375 -24.6875 L 7.9375 -9.515625 C 7.9375 -7.992188 8.390625 -6.78125 9.296875 -5.875 C 10.203125 -4.96875 11.359375 -4.515625 12.765625 -4.515625 C 14.203125 -4.515625 15.375 -4.96875 16.28125 -5.875 C 17.1875 -6.78125 17.640625 -7.992188 17.640625 -9.515625 L 17.640625 -24.6875 L 22.953125 -24.6875 L 22.953125 -9.28125 C 22.953125 -7.351562 22.507812 -5.648438 21.625 -4.171875 C 20.75 -2.703125 19.539062 -1.550781 18 -0.71875 C 16.457031 0.113281 14.710938 0.53125 12.765625 0.53125 Z M 12.765625 0.53125 "/></g></g></g><g fill="#ffffff" fill-opacity="1"><g transform="translate(199.73173, 190.514987)"><g><path d="M 17.5625 -19.71875 L 8.1875 -19.71875 L 8.1875 -14.28125 L 16.640625 -14.28125 L 16.640625 -9.453125 L 8.1875 -9.453125 L 8.1875 0 L 2.828125 0 L 2.828125 -24.6875 L 17.5625 -24.6875 Z M 17.5625 -19.71875 "/></g></g></g><g fill="#ffffff" fill-opacity="1"><g transform="translate(218.596765, 190.514987)"><g/></g></g><g fill="#ffffff" fill-opacity="1"><g transform="translate(227.024319, 190.514987)"><g><path d="M 19.859375 -24.6875 L 19.859375 -19.71875 L 12.984375 -19.71875 L 12.984375 0 L 7.625 0 L 7.625 -19.71875 L 0.78125 -19.71875 L 0.78125 -24.6875 Z M 19.859375 -24.6875 "/></g></g></g><g fill="#ffffff" fill-opacity="1"><g transform="translate(247.617183, 190.514987)"><g><path d="M 16.40625 0 L 11.609375 -8.421875 L 8.1875 -8.421875 L 8.1875 0 L 2.828125 0 L 2.828125 -24.6875 L 12.796875 -24.6875 C 14.441406 -24.6875 15.910156 -24.332031 17.203125 -23.625 C 18.503906 -22.914062 19.53125 -21.953125 20.28125 -20.734375 C 21.03125 -19.515625 21.40625 -18.101562 21.40625 -16.5 C 21.40625 -14.90625 21 -13.476562 20.1875 -12.21875 C 19.375 -10.957031 18.285156 -10 16.921875 -9.34375 L 22.390625 0 Z M 8.1875 -19.75 L 8.1875 -13.359375 L 12.453125 -13.359375 C 13.554688 -13.359375 14.425781 -13.660156 15.0625 -14.265625 C 15.695312 -14.867188 16.015625 -15.628906 16.015625 -16.546875 C 16.015625 -17.484375 15.695312 -18.25 15.0625 -18.84375 C 14.425781 -19.445312 13.554688 -19.75 12.453125 -19.75 Z M 8.1875 -19.75 "/></g></g></g><g fill="#ffffff" fill-opacity="1"><g transform="translate(270.925203, 190.514987)"><g><path d="M 19.21875 0 L 17.484375 -4.6875 L 7.65625 -4.6875 L 5.953125 0 L 0.3125 0 L 9.984375 -24.6875 L 15.015625 -24.6875 L 25 0 Z M 12.546875 -18.15625 L 9.34375 -9.34375 L 15.796875 -9.34375 Z M 12.546875 -18.15625 "/></g></g></g><g fill="#ffffff" fill-opacity="1"><g transform="translate(296.243137, 190.514987)"><g><path d="M 14.140625 0.53125 C 12.328125 0.53125 10.644531 0.207031 9.09375 -0.4375 C 7.539062 -1.082031 6.1875 -1.988281 5.03125 -3.15625 C 3.882812 -4.320312 2.992188 -5.6875 2.359375 -7.25 C 1.722656 -8.8125 1.40625 -10.5 1.40625 -12.3125 C 1.40625 -14.144531 1.722656 -15.847656 2.359375 -17.421875 C 2.992188 -18.992188 3.882812 -20.363281 5.03125 -21.53125 C 6.1875 -22.695312 7.539062 -23.601562 9.09375 -24.25 C 10.644531 -24.894531 12.328125 -25.21875 14.140625 -25.21875 C 16.140625 -25.21875 17.972656 -24.804688 19.640625 -23.984375 C 21.304688 -23.160156 22.703125 -22.003906 23.828125 -20.515625 C 24.960938 -19.035156 25.71875 -17.320312 26.09375 -15.375 L 20.734375 -15.375 C 20.242188 -16.832031 19.410156 -17.988281 18.234375 -18.84375 C 17.054688 -19.707031 15.691406 -20.140625 14.140625 -20.140625 C 12.753906 -20.140625 11.507812 -19.789062 10.40625 -19.09375 C 9.300781 -18.40625 8.425781 -17.472656 7.78125 -16.296875 C 7.132812 -15.117188 6.8125 -13.789062 6.8125 -12.3125 C 6.8125 -10.832031 7.132812 -9.507812 7.78125 -8.34375 C 8.425781 -7.175781 9.300781 -6.25 10.40625 -5.5625 C 11.507812 -4.882812 12.753906 -4.546875 14.140625 -4.546875 C 15.765625 -4.546875 17.160156 -5.003906 18.328125 -5.921875 C 19.503906 -6.835938 20.316406 -8.082031 20.765625 -9.65625 L 26.171875 -9.65625 C 25.796875 -7.613281 25.046875 -5.828125 23.921875 -4.296875 C 22.804688 -2.773438 21.40625 -1.585938 19.71875 -0.734375 C 18.039062 0.109375 16.179688 0.53125 14.140625 0.53125 Z M 14.140625 0.53125 "/></g></g></g><g fill="#ffffff" fill-opacity="1"><g transform="translate(323.429948, 190.514987)"><g><path d="M 23.421875 0 L 16.890625 0 L 8.1875 -12.0625 L 8.1875 0 L 2.828125 0 L 2.828125 -24.6875 L 8.1875 -24.6875 L 8.1875 -13.296875 L 16.25 -24.6875 L 22.5 -24.6875 L 14.078125 -12.875 Z M 23.421875 0 "/></g></g></g><g fill="#ffffff" fill-opacity="1"><g transform="translate(165.92031, 209.489986)"><g><path d="M 4.703125 -9.28125 C 4.179688 -9.28125 3.753906 -9.171875 3.421875 -8.953125 C 3.085938 -8.742188 2.921875 -8.421875 2.921875 -7.984375 C 2.921875 -7.546875 3.085938 -7.210938 3.421875 -6.984375 C 3.753906 -6.753906 4.46875 -6.507812 5.5625 -6.25 C 6.664062 -5.988281 7.492188 -5.617188 8.046875 -5.140625 C 8.597656 -4.660156 8.875 -3.953125 8.875 -3.015625 C 8.875 -2.085938 8.519531 -1.332031 7.8125 -0.75 C 7.113281 -0.164062 6.195312 0.125 5.0625 0.125 C 3.382812 0.125 1.898438 -0.453125 0.609375 -1.609375 L 1.734375 -2.96875 C 2.816406 -2.03125 3.941406 -1.5625 5.109375 -1.5625 C 5.679688 -1.5625 6.140625 -1.6875 6.484375 -1.9375 C 6.828125 -2.1875 7 -2.515625 7 -2.921875 C 7 -3.335938 6.835938 -3.660156 6.515625 -3.890625 C 6.191406 -4.117188 5.640625 -4.328125 4.859375 -4.515625 C 4.078125 -4.703125 3.476562 -4.875 3.0625 -5.03125 C 2.65625 -5.1875 2.296875 -5.394531 1.984375 -5.65625 C 1.359375 -6.132812 1.046875 -6.867188 1.046875 -7.859375 C 1.046875 -8.847656 1.398438 -9.609375 2.109375 -10.140625 C 2.828125 -10.671875 3.71875 -10.9375 4.78125 -10.9375 C 5.46875 -10.9375 6.144531 -10.820312 6.8125 -10.59375 C 7.488281 -10.375 8.070312 -10.0625 8.5625 -9.65625 L 7.59375 -8.296875 C 7.28125 -8.578125 6.851562 -8.8125 6.3125 -9 C 5.769531 -9.1875 5.234375 -9.28125 4.703125 -9.28125 Z M 4.703125 -9.28125 "/></g></g></g><g fill="#ffffff" fill-opacity="1"><g transform="translate(178.076677, 209.489986)"><g><path d="M 9.09375 -8.15625 C 8.363281 -8.914062 7.46875 -9.296875 6.40625 -9.296875 C 5.351562 -9.296875 4.460938 -8.914062 3.734375 -8.15625 C 3.003906 -7.40625 2.640625 -6.492188 2.640625 -5.421875 C 2.640625 -4.347656 3.003906 -3.429688 3.734375 -2.671875 C 4.460938 -1.921875 5.351562 -1.546875 6.40625 -1.546875 C 7.46875 -1.546875 8.363281 -1.921875 9.09375 -2.671875 C 9.820312 -3.429688 10.1875 -4.347656 10.1875 -5.421875 C 10.1875 -6.492188 9.820312 -7.40625 9.09375 -8.15625 Z M 10.421875 -1.46875 C 9.335938 -0.414062 8 0.109375 6.40625 0.109375 C 4.820312 0.109375 3.488281 -0.414062 2.40625 -1.46875 C 1.332031 -2.53125 0.796875 -3.847656 0.796875 -5.421875 C 0.796875 -6.992188 1.332031 -8.304688 2.40625 -9.359375 C 3.488281 -10.410156 4.820312 -10.9375 6.40625 -10.9375 C 8 -10.9375 9.335938 -10.410156 10.421875 -9.359375 C 11.503906 -8.304688 12.046875 -6.992188 12.046875 -5.421875 C 12.046875 -3.847656 11.503906 -2.53125 10.421875 -1.46875 Z M 10.421875 -1.46875 "/></g></g></g><g fill="#ffffff" fill-opacity="1"><g transform="translate(193.439633, 209.489986)"><g><path d="M 3.28125 -9 L 3.28125 -6.0625 L 8.015625 -6.0625 L 8.015625 -4.40625 L 3.28125 -4.40625 L 3.28125 0 L 1.484375 0 L 1.484375 -10.6875 L 8.609375 -10.6875 L 8.59375 -9 Z M 3.28125 -9 "/></g></g></g><g fill="#ffffff" fill-opacity="1"><g transform="translate(205.198994, 209.489986)"><g><path d="M 5.515625 -9.03125 L 5.515625 0 L 3.71875 0 L 3.71875 -9.03125 L 0.46875 -9.03125 L 0.46875 -10.6875 L 8.75 -10.6875 L 8.75 -9.03125 Z M 5.515625 -9.03125 "/></g></g></g><g fill="#ffffff" fill-opacity="1"><g transform="translate(216.958353, 209.489986)"><g><path d="M 4.8125 -3 L 7.203125 -10.6875 L 8.8125 -10.6875 L 11.203125 -3 L 13.890625 -10.6875 L 15.828125 -10.6875 L 12.109375 0 L 10.3125 0 L 8.0625 -7.3125 L 7.953125 -7.3125 L 5.703125 0 L 3.90625 0 L 0.1875 -10.6875 L 2.125 -10.6875 Z M 4.8125 -3 "/></g></g></g><g fill="#ffffff" fill-opacity="1"><g transform="translate(235.497351, 209.489986)"><g><path d="M 3 -2.4375 L 1.921875 0 L 0 0 L 4.703125 -10.6875 L 6.625 -10.6875 L 11.34375 0 L 9.40625 0 L 8.34375 -2.4375 Z M 7.609375 -4.09375 L 5.671875 -8.5 L 3.734375 -4.09375 Z M 7.609375 -4.09375 "/></g></g></g><g fill="#ffffff" fill-opacity="1"><g transform="translate(249.363898, 209.489986)"><g><path d="M 10.015625 -7.21875 C 10.015625 -5.445312 9.242188 -4.332031 7.703125 -3.875 L 10.5 0 L 8.203125 0 L 5.65625 -3.59375 L 3.28125 -3.59375 L 3.28125 0 L 1.484375 0 L 1.484375 -10.6875 L 5.453125 -10.6875 C 7.085938 -10.6875 8.253906 -10.410156 8.953125 -9.859375 C 9.660156 -9.304688 10.015625 -8.425781 10.015625 -7.21875 Z M 5.53125 -5.21875 C 6.550781 -5.21875 7.242188 -5.375 7.609375 -5.6875 C 7.972656 -6.007812 8.15625 -6.519531 8.15625 -7.21875 C 8.15625 -7.914062 7.96875 -8.394531 7.59375 -8.65625 C 7.21875 -8.914062 6.546875 -9.046875 5.578125 -9.046875 L 3.28125 -9.046875 L 3.28125 -5.21875 Z M 5.53125 -5.21875 "/></g></g></g><g fill="#ffffff" fill-opacity="1"><g transform="translate(263.01667, 209.489986)"><g><path d="M 8.984375 -10.6875 L 8.984375 -8.984375 L 3.28125 -8.984375 L 3.28125 -6.15625 L 8.40625 -6.15625 L 8.40625 -4.546875 L 3.28125 -4.546875 L 3.28125 -1.703125 L 9.171875 -1.703125 L 9.171875 0 L 1.484375 0 L 1.484375 -10.6875 Z M 8.984375 -10.6875 "/></g></g></g><g fill="#ffffff" fill-opacity="1"><g transform="translate(275.539516, 209.489986)"><g/></g></g><g fill="#ffffff" fill-opacity="1"><g transform="translate(282.259966, 209.489986)"><g><path d="M 5.515625 -9.03125 L 5.515625 0 L 3.71875 0 L 3.71875 -9.03125 L 0.46875 -9.03125 L 0.46875 -10.6875 L 8.75 -10.6875 L 8.75 -9.03125 Z M 5.515625 -9.03125 "/></g></g></g><g fill="#ffffff" fill-opacity="1"><g transform="translate(294.019331, 209.489986)"><g><path d="M 3 -2.4375 L 1.921875 0 L 0 0 L 4.703125 -10.6875 L 6.625 -10.6875 L 11.34375 0 L 9.40625 0 L 8.34375 -2.4375 Z M 7.609375 -4.09375 L 5.671875 -8.5 L 3.734375 -4.09375 Z M 7.609375 -4.09375 "/></g></g></g><g fill="#ffffff" fill-opacity="1"><g transform="translate(307.885884, 209.489986)"><g><path d="M 7.8125 0 L 5.1875 -4.015625 L 5.109375 -4.015625 L 2.46875 0 L 0.234375 0 L 3.890625 -5.484375 L 0.484375 -10.6875 L 2.71875 -10.6875 L 5.109375 -7.078125 L 5.1875 -7.078125 L 7.5625 -10.6875 L 9.796875 -10.6875 L 6.390625 -5.484375 L 10.0625 0 Z M 7.8125 0 "/></g></g></g><g fill="#ffffff" fill-opacity="1"><g transform="translate(320.698849, 209.489986)"><g><path d="M 1.484375 -10.6875 L 3.28125 -10.6875 L 3.28125 0 L 1.484375 0 Z M 1.484375 -10.6875 "/></g></g></g></svg>